<svg width="16" height="20" viewBox="0 0 16 20" fill="none" xmlns="http://www.w3.org/2000/svg">
<path d="M15.8412 13.0728L15.6753 10.9814C11.2931 7.91715 11.8072 8.21624 9.28229 6.45245V1.14401C9.28229 0.372197 8.59794 -0.00837869 7.92084 0.000154392C7.24374 -0.00880535 6.55981 0.372197 6.55981 1.14401V6.45159C4.03487 8.21538 4.54856 7.91672 0.166395 10.9805L0 13.0724L6.5709 10.4818C6.5709 10.4818 6.55298 17.0279 6.56834 17.1295L4.21705 18.7384V20L7.2224 18.9645H8.61799L11.6242 20V18.7388L9.27205 17.1299C9.28826 17.0275 9.27034 10.4822 9.27034 10.4822L15.8412 13.0728Z" fill="#AAAAAA"/>
</svg>
