<svg version="1.1" id="Layer_1" xmlns="http://www.w3.org/2000/svg" xmlns:xlink="http://www.w3.org/1999/xlink" x="0px" y="0px"
	 width="100%" viewBox="0 0 512 512" enable-background="new 0 0 512 512" xml:space="preserve">
<path fill="#343333" opacity="1.000000" stroke="none" 
	d="
M447.000000,513.000000 
	C320.645782,513.000000 194.291550,513.000000 67.456223,512.609375 
	C66.317505,509.014038 65.105087,505.812103 65.088844,502.604095 
	C64.941193,473.444336 65.383110,444.276947 64.876686,415.125244 
	C64.499634,393.420685 69.564133,373.384460 80.181442,354.613464 
	C87.222382,342.165314 96.339554,331.387695 107.680161,322.755493 
	C116.151100,316.307617 125.275742,310.718506 133.739166,304.997223 
	C116.159500,304.997223 97.849388,305.194122 79.546112,304.925629 
	C67.991753,304.756165 58.386780,299.805450 51.259121,290.731903 
	C47.928455,286.491974 45.430000,281.598297 42.552444,276.997833 
	C40.660213,276.997833 38.459114,276.710114 36.358105,277.046844 
	C26.468639,278.632019 16.074766,267.064911 16.803604,257.699188 
	C17.654289,246.767731 17.650726,235.669968 16.818735,224.735611 
	C15.997061,213.936844 26.913305,203.764603 37.023285,204.966400 
	C39.107227,205.214111 41.245792,205.002304 43.273251,205.002304 
	C50.119961,185.802551 67.138756,175.868896 85.277534,176.830429 
	C100.896988,177.658417 116.595146,177.013443 132.258438,176.985825 
	C133.977951,176.982788 135.697083,176.756332 137.002350,176.663086 
	C137.002350,168.151749 137.208374,160.333954 136.948593,152.531677 
	C136.644821,143.408569 140.622543,136.672653 148.277039,132.388321 
	C151.958893,130.327515 151.915512,128.255157 151.081085,124.810478 
	C150.148834,120.961891 147.649307,120.972816 144.677795,120.978157 
	C123.682304,121.015800 102.686531,120.948311 81.691330,121.034492 
	C77.000038,121.053757 73.436073,119.659119 72.200752,114.809799 
	C71.234177,111.015472 74.256302,106.697029 78.674179,104.949066 
	C97.035233,97.684372 115.333641,90.256859 133.773926,83.199776 
	C138.928375,81.227165 143.052292,79.077614 143.316605,72.814163 
	C143.366684,71.627380 144.431885,70.437996 145.154404,69.331947 
	C153.783951,56.121521 162.421005,42.915932 171.089188,29.730835 
	C179.059189,17.607746 189.221420,8.154764 203.221390,3.331480 
	C204.288666,2.963786 205.080261,1.795919 206.000000,0.999996 
	C237.020889,1.000000 268.041779,1.000000 299.565033,1.354710 
	C303.563629,3.497764 307.253723,4.989106 310.524109,7.123496 
	C329.273895,19.360355 347.938843,31.727551 366.601227,44.097797 
	C374.877228,49.583485 378.769623,59.551708 376.320129,69.292984 
	C375.446808,72.766083 373.987701,76.091873 372.725250,79.686279 
	C374.127594,80.421890 375.385468,81.242371 376.755127,81.775955 
	C395.931458,89.246841 415.118744,96.689781 434.313690,104.112770 
	C439.917450,106.279831 441.934174,109.595367 440.895142,115.315376 
	C439.896973,120.810669 435.775208,121.038147 431.366150,121.020996 
	C415.872040,120.960716 400.363098,121.394600 384.889282,120.831161 
	C377.096436,120.547417 371.567474,121.570480 369.609741,130.367767 
	C368.976410,133.213745 368.620605,134.806839 370.564178,137.344406 
	C372.995239,140.518509 375.528412,144.463455 375.831451,148.250549 
	C376.578369,157.585052 376.076111,167.019516 376.076111,177.002167 
	C377.811005,177.002167 379.604553,177.002167 381.398102,177.002167 
	C397.725464,177.002167 414.055573,177.188248 430.379456,176.949661 
	C446.580261,176.712906 459.089386,183.661407 466.297882,197.620758 
	C469.772003,204.348511 473.468353,205.379791 479.853149,205.133759 
	C488.339813,204.806717 496.906769,213.559448 496.970245,221.980927 
	C497.065674,234.642258 497.520874,247.339096 496.699646,259.947632 
	C496.424896,264.166443 493.337769,268.688965 490.430481,272.141632 
	C485.360809,278.162445 477.925201,277.221954 470.776428,276.748871 
	C470.418884,277.656952 470.109650,278.400208 469.831543,279.154938 
	C463.573975,296.137939 446.073883,305.945679 430.638824,305.158691 
	C416.015533,304.413147 401.324402,304.998047 386.663086,304.997894 
	C383.914154,304.997864 381.165222,304.997894 378.110321,304.997894 
	C378.573792,305.794617 378.664886,306.206482 378.889679,306.301300 
	C397.162262,314.007233 412.571442,325.593384 424.631012,341.276337 
	C439.694427,360.865692 448.790497,382.878235 448.951843,407.921661 
	C449.147186,438.242676 449.083282,468.566376 448.908600,498.887634 
	C448.881439,503.595276 447.665985,508.296051 447.000000,513.000000 
M360.035004,425.046082 
	C357.807343,425.046082 355.579712,425.046082 353.308838,425.046082 
	C353.308838,449.404602 353.308838,472.897095 353.308838,496.860107 
	C356.044342,496.860107 358.480164,496.860107 361.816437,496.939728 
	C364.400208,496.256714 368.895844,499.089661 368.926300,493.615082 
	C369.047119,471.902283 369.032837,450.187927 368.825256,428.476440 
	C368.814117,427.311615 366.760986,425.767578 365.332947,425.136200 
	C364.101776,424.591858 362.406097,425.098083 360.035004,425.046082 
M409.914154,496.973328 
	C417.498444,496.973328 425.082733,496.973328 432.670258,496.973328 
	C432.670258,488.691864 432.670258,480.983582 432.670258,473.166534 
	C424.556793,473.166534 416.770508,473.166534 408.058472,473.023376 
	C400.473877,473.023376 392.889282,473.023376 385.314484,473.023376 
	C385.314484,481.304138 385.314484,489.017212 385.314484,496.833466 
	C393.412476,496.833466 401.198273,496.833466 409.914154,496.973328 
M152.034958,425.046082 
	C149.807312,425.046082 147.579666,425.046082 145.308838,425.046082 
	C145.308838,449.404633 145.308838,472.897125 145.308838,496.860107 
	C148.044373,496.860107 150.480179,496.860107 153.816452,496.939728 
	C156.400284,496.256775 160.895874,499.089508 160.926331,493.615082 
	C161.047150,471.902283 161.032913,450.187866 160.825378,428.476379 
	C160.814240,427.311584 158.760986,425.767578 157.332916,425.136230 
	C156.101715,424.591888 154.406082,425.098083 152.034958,425.046082 
M104.058510,473.023376 
	C96.473900,473.023376 88.889297,473.023376 81.314476,473.023376 
	C81.314476,481.304138 81.314476,489.017181 81.314476,496.833466 
	C89.412346,496.833466 97.198227,496.833466 105.914162,496.973328 
	C113.498444,496.973328 121.082733,496.973328 128.670258,496.973328 
	C128.670258,488.691467 128.670258,480.983459 128.670258,473.166534 
	C120.556831,473.166534 112.770561,473.166534 104.058510,473.023376 
M299.233185,327.142456 
	C291.164062,336.280884 283.094940,345.419312 274.783722,354.831940 
	C282.705841,360.458984 290.259552,365.824341 298.182159,371.751770 
	C301.932770,374.447357 305.683350,377.142975 309.824951,380.119598 
	C315.759766,366.354248 321.520966,352.991669 327.386017,339.388123 
	C319.354797,334.621063 311.844269,330.031219 304.153748,325.765839 
	C303.196625,325.235016 301.285217,326.424774 299.233185,327.142456 
M313.104004,400.061096 
	C275.388306,400.097412 237.672577,400.133759 199.261902,399.986725 
	C197.165085,397.794098 194.192108,395.965088 193.107697,393.352234 
	C182.855103,368.649414 170.052719,344.914734 164.269775,318.472748 
	C163.976990,317.133942 161.533005,315.024109 160.601654,315.263275 
	C153.291565,317.140350 146.106247,319.503296 138.501480,321.833252 
	C139.554550,324.595825 140.098663,326.141144 140.726395,327.651764 
	C146.986130,342.716003 153.214111,357.793671 159.545792,372.827667 
	C163.545197,382.323914 167.705292,391.752441 171.905991,401.950867 
	C172.891846,407.362732 175.810867,409.175140 181.567215,409.146362 
	C232.384918,408.891815 283.204529,408.954468 334.023163,409.085327 
	C337.933929,409.095398 339.939850,407.990051 341.458099,404.277771 
	C351.355713,380.077362 361.436371,355.951050 371.587463,331.855408 
	C375.877167,321.672913 375.451355,320.623108 364.463959,318.094116 
	C363.988556,317.984711 363.471252,318.057220 362.286713,317.752319 
	C360.411438,317.122742 358.494965,316.593414 356.668854,315.844025 
	C351.946686,313.906036 350.010193,315.602905 348.875671,320.472260 
	C346.962036,328.685394 344.865021,336.957642 341.749268,344.767822 
	C335.112213,361.404755 327.917419,377.826569 320.565765,394.163116 
	C319.449951,396.642670 316.268036,398.192505 313.104004,400.061096 
M336.953918,432.035004 
	C336.953918,429.803894 336.953918,427.572815 336.953918,425.303406 
	C283.259186,425.303406 230.441971,425.303406 177.139877,425.303406 
	C177.139877,428.028503 177.139877,430.472229 177.060272,433.816437 
	C176.955597,440.987671 176.955597,440.996155 183.901352,440.996521 
	C232.602722,440.999084 281.304077,440.998016 330.005463,440.997101 
	C331.168915,440.997070 332.587097,441.403198 333.437927,440.884369 
	C334.816254,440.043793 336.225739,438.772614 336.862732,437.344543 
	C337.411804,436.113617 336.901886,434.410278 336.953918,432.035004 
M240.904526,351.291595 
	C233.429688,342.599182 225.889374,333.961639 218.523880,325.177551 
	C216.564041,322.840302 214.975632,322.498291 212.259048,324.953613 
	C203.752625,329.740082 195.246216,334.526550 186.587280,339.398834 
	C192.515411,353.109650 198.234894,366.337891 204.127838,379.967346 
	C216.524750,371.174469 228.461945,362.730408 240.340942,354.205261 
	C240.856949,353.834961 240.837921,352.719208 240.904526,351.291595 
M456.933258,240.987015 
	C456.939728,234.176956 457.144684,227.360046 456.910675,220.558273 
	C456.448212,207.116623 448.872772,195.828568 437.853485,193.859955 
	C431.189636,192.669449 424.139587,193.640762 417.146820,193.640762 
	C417.146820,216.452377 417.146820,239.190079 417.041351,262.869263 
	C417.041351,271.749146 417.041351,280.629028 417.041351,289.886108 
	C421.508667,289.886108 425.138611,289.888458 428.768585,289.885712 
	C443.831116,289.874268 453.438324,282.611023 455.910767,267.671570 
	C457.302246,259.263611 456.563141,250.503067 456.933258,240.987015 
M288.028625,315.743225 
	C288.631836,314.778900 289.751831,313.819092 289.760284,312.849579 
	C289.876038,299.580383 289.838257,286.309845 289.838257,272.999512 
	C277.038544,272.999512 264.754272,272.996368 252.470001,273.006470 
	C251.641556,273.007172 250.813187,273.107849 249.058914,273.020691 
	C241.159882,273.020691 233.260849,273.020691 225.001251,273.020691 
	C225.001251,284.135834 224.960724,295.587219 225.061432,307.037354 
	C225.071976,308.234955 225.632767,309.671448 226.419357,310.581085 
	C235.008362,320.513855 243.578278,330.468140 252.403137,340.189819 
	C256.481201,344.682281 262.423920,344.603973 266.440521,340.154144 
	C273.561127,332.265533 280.434814,324.154083 288.028625,315.743225 
M58.854462,270.927765 
	C65.668945,289.306824 77.472664,290.601501 96.854713,288.225830 
	C96.854713,282.156494 96.854713,276.042480 96.974236,269.006989 
	C96.974236,243.755676 96.974236,218.504364 96.974236,193.066483 
	C90.630867,193.066483 84.960510,192.752243 79.337288,193.133453 
	C68.427940,193.873016 58.695244,203.359848 57.723717,217.069717 
	C56.563034,233.449020 57.605522,249.986221 57.770958,266.454254 
	C57.783554,267.707672 58.410587,268.954926 58.854462,270.927765 
M383.624512,345.598724 
	C374.827332,366.531372 366.030151,387.464020 356.978119,409.003021 
	C363.917206,409.003021 369.898834,408.939117 375.878479,409.020386 
	C382.269867,409.107269 384.872223,411.774811 384.986969,418.227142 
	C385.046173,421.556641 384.999512,424.888031 384.999634,428.218567 
	C384.999969,437.654297 384.999756,447.089996 384.999756,456.838440 
	C393.404968,456.838440 401.189484,456.838440 409.907745,456.953430 
	C417.479248,456.953430 425.050751,456.953430 432.981689,456.953430 
	C432.981689,441.246002 433.183716,426.306213 432.933807,411.373962 
	C432.569733,389.620667 425.847931,369.914001 412.763672,352.498718 
	C406.475586,344.129150 399.153290,336.783356 389.656860,330.741302 
	C387.647919,335.865479 385.850433,340.450317 383.624512,345.598724 
M117.756401,456.941040 
	C121.351448,456.941040 124.946503,456.941040 129.004089,456.941040 
	C129.004089,443.662811 128.961533,431.057068 129.021301,418.451874 
	C129.053238,411.715973 131.690994,409.093781 138.389160,409.018066 
	C144.307892,408.951111 150.227966,409.004028 157.145905,409.004028 
	C148.908951,389.693268 141.042007,371.249969 133.058426,352.081421 
	C130.172134,345.091400 127.285835,338.101410 124.243073,330.732452 
	C122.142570,332.197052 120.605011,333.156189 119.191154,334.272064 
	C101.193764,348.476898 89.602760,366.789154 83.908920,388.968994 
	C80.340317,402.870148 81.048370,417.018188 81.004036,431.135101 
	C80.977539,439.570679 80.999168,448.006378 80.999168,456.806396 
	C93.294609,456.806396 105.048759,456.806396 117.756401,456.941040 
M136.999329,271.887146 
	C136.999329,277.475372 136.999329,283.063568 136.999329,288.640076 
	C161.392990,288.640076 184.954117,288.640076 208.817886,288.640076 
	C208.817886,283.496887 208.817886,278.705475 208.950867,273.067810 
	C210.527618,267.380585 206.239853,265.126160 202.882370,261.972870 
	C185.200974,245.366684 172.501587,225.633545 165.891602,202.116226 
	C165.338806,200.149460 163.568954,198.298492 161.931290,196.901718 
	C154.459961,190.529373 145.642700,193.694443 137.106796,193.014450 
	C137.106796,219.453598 137.106796,245.201752 136.999329,271.887146 
M305.045441,277.857574 
	C305.045441,281.446106 305.045441,285.034668 305.045441,288.641174 
	C329.380035,288.641174 352.945953,288.641174 376.815948,288.641174 
	C376.815948,283.167480 376.815948,278.040527 376.952087,271.995880 
	C376.952087,245.783829 376.952087,219.571777 376.952087,193.006638 
	C370.764069,193.006638 365.135101,192.875793 359.515472,193.048935 
	C355.186584,193.182297 348.306061,198.219162 347.299683,201.794159 
	C340.788269,224.924835 328.691925,244.759018 311.123169,260.999756 
	C306.033752,265.704437 303.981232,270.427246 305.045441,277.857574 
M187.997025,215.591827 
	C188.328461,216.072830 188.659897,216.553833 189.086258,217.737900 
	C195.088226,230.191116 203.708725,240.659317 213.475418,250.315979 
	C218.024200,254.813522 223.443954,256.917633 229.634811,256.954285 
	C247.941467,257.062622 266.249847,257.082214 284.556091,256.943237 
	C290.547363,256.897766 295.937500,254.885529 300.712341,249.992126 
	C319.971222,231.666611 331.849670,209.233582 335.457184,183.063309 
	C337.355011,169.296112 336.630646,155.160919 336.974670,141.189056 
	C337.129364,134.907486 337.000885,128.618958 337.000885,122.048615 
	C335.394318,121.975967 334.269714,121.880836 333.145111,121.880646 
	C287.663177,121.872993 242.181274,121.873322 196.699356,121.877495 
	C195.701340,121.877586 194.210602,121.517532 193.779846,122.027138 
	C188.099899,128.747147 182.569214,135.593307 177.001160,142.407883 
	C177.383911,155.380890 177.449982,168.373276 178.242523,181.321213 
	C178.969376,193.195999 182.187439,204.523193 188.006775,214.997299 
	C188.006775,214.997299 187.996750,214.989655 187.997025,215.591827 
M374.576263,105.364273 
	C379.273773,105.633232 383.971252,105.902184 388.668762,106.171143 
	C388.101562,104.527214 387.349548,104.019165 386.527863,103.679726 
	C377.911896,100.120361 369.297943,96.555458 360.656555,93.058517 
	C353.815247,90.290062 352.110840,86.628311 354.708313,79.735741 
	C356.058319,76.153358 357.476135,72.591858 359.003967,69.082169 
	C361.963593,62.283527 361.197968,59.548161 354.927277,55.297390 
	C344.589905,48.289902 334.284363,41.234627 323.895294,34.304550 
	C317.388306,29.964037 310.875427,25.608807 304.146484,21.630075 
	C294.121094,15.702211 282.920868,17.012852 271.038147,17.004971 
	C255.967743,17.118757 240.897339,17.232544 224.938385,17.223690 
	C210.456589,16.225151 198.168350,20.914070 189.655518,32.753284 
	C179.766678,46.506207 170.667603,60.829937 161.375504,75.004089 
	C160.523331,76.304001 160.229370,78.434349 160.577530,79.975464 
	C162.008759,86.310982 160.787766,89.341110 154.902451,91.943359 
	C145.636780,96.040283 136.315659,100.011833 126.414185,104.074402 
	C125.642174,104.490303 124.870163,104.906204 122.793175,106.025116 
	C125.225929,105.909164 126.155243,105.864876 128.009918,105.866554 
	C192.974075,105.850189 257.938232,105.833832 323.845337,105.967125 
	C338.724762,105.949043 353.604309,105.957405 368.483398,105.877716 
	C370.243469,105.868294 372.000977,105.376534 374.576263,105.364273 
M212.100998,457.053406 
	C200.514801,457.053406 188.928604,457.053406 177.306549,457.053406 
	C177.306549,470.674622 177.306549,483.586853 177.306549,496.998932 
	C179.397018,496.998932 181.187790,496.998962 182.978561,496.998962 
	C207.966324,496.998993 232.954132,497.021240 257.941864,496.992798 
	C282.926697,496.964386 307.911469,496.885254 333.757355,496.941223 
	C334.822418,496.261200 336.805634,495.595032 336.816162,494.899048 
	C337.003876,482.458984 336.952515,470.015381 336.952515,457.494293 
	C335.763947,457.272766 335.133636,457.052155 334.503448,457.052551 
	C294.014740,457.077972 253.526047,457.121338 212.100998,457.053406 
M393.860413,288.656830 
	C396.098083,288.656830 398.335754,288.656830 400.634491,288.656830 
	C400.634491,256.610779 400.634491,225.054291 400.634491,193.344391 
	C398.031738,193.344391 395.799591,193.344391 393.002197,193.344391 
	C393.002197,195.463318 393.002228,197.253143 393.002228,199.042953 
	C393.002197,212.368530 392.967621,225.694229 393.010895,239.019669 
	C393.063873,255.336044 393.182068,271.652222 393.860413,288.656830 
M113.002121,270.499329 
	C113.002121,276.571045 113.002121,282.642761 113.002121,288.549438 
	C116.174683,288.549438 118.401169,288.549438 120.622421,288.549438 
	C120.622421,256.561127 120.622421,225.015518 120.622421,193.356842 
	C118.010391,193.356842 115.777023,193.356842 113.002121,193.356842 
	C113.002121,218.966766 113.002121,244.233154 113.002121,270.499329 
M269.178284,371.327148 
	C267.424469,370.065430 265.670959,368.803314 263.916840,367.542053 
	C257.004303,362.571777 257.004761,362.572601 250.190750,367.483215 
	C242.583710,372.965332 234.975647,378.445984 226.275482,384.714478 
	C247.367538,384.714478 266.993286,384.714478 287.849670,384.714478 
	C281.236359,379.981110 275.494293,375.871307 269.178284,371.327148 
M41.002594,253.253418 
	C41.000565,244.136536 41.187721,235.012085 40.824440,225.909622 
	C40.758003,224.244873 38.450718,222.669540 37.177830,221.052917 
	C35.793262,222.382889 33.251389,223.676239 33.207951,225.048645 
	C32.872536,235.646637 32.871014,246.264587 33.199593,256.862915 
	C33.242928,258.260651 35.568707,260.294617 37.158924,260.669281 
	C38.096138,260.890137 39.842476,258.550140 40.873680,257.110291 
	C41.349964,256.445282 40.985668,255.178238 41.002594,253.253418 
M472.997467,250.402924 
	C472.998016,252.069092 473.037994,253.736404 472.990479,255.401199 
	C472.905548,258.377533 473.567505,260.968781 477.159332,260.876373 
	C480.414001,260.792572 481.025604,258.353088 481.014679,255.571701 
	C480.976746,245.908051 480.975769,236.244049 481.015289,226.580414 
	C481.027466,223.602753 480.408752,221.014999 476.821625,221.116562 
	C473.567322,221.208725 472.966797,223.651978 472.983551,226.433609 
	C473.029694,234.097733 472.998199,241.762299 472.997467,250.402924 
M352.993744,168.402283 
	C352.993744,171.151962 352.993744,173.901657 352.993744,176.793427 
	C358.913696,174.758713 360.857208,172.392563 360.982635,167.120300 
	C361.085114,162.811676 361.069977,158.497437 360.988159,154.187958 
	C360.884888,148.747833 358.731201,146.431503 352.993744,145.527451 
	C352.993744,152.845932 352.993744,160.136459 352.993744,168.402283 
M152.994308,166.099426 
	C152.716476,171.747498 156.080673,174.628571 160.755737,176.826401 
	C160.755737,166.053909 160.755737,155.668365 160.755737,145.083237 
	C155.464554,145.535675 153.150772,148.420303 153.024429,153.229736 
	C152.919830,157.211517 152.997177,161.198074 152.994308,166.099426 
M182.368561,323.546051 
	C188.023117,320.388092 193.677689,317.230103 199.332245,314.072144 
	C199.186493,313.799744 199.040726,313.527374 198.894958,313.254974 
	C192.679474,313.254974 186.463974,313.254974 179.518372,313.254974 
	C180.336533,316.816650 181.061005,319.970459 182.368561,323.546051 
M326.451111,312.983185 
	C322.612152,312.983185 318.773224,312.983185 314.934265,312.983185 
	C314.886261,313.358978 314.838257,313.734772 314.790222,314.110565 
	C320.391907,317.310364 325.993561,320.510162 332.265472,324.092834 
	C333.080597,319.941406 333.698792,316.792969 334.446838,312.983215 
	C331.645264,312.983215 329.530548,312.983215 326.451111,312.983185 
z"/>
<path fill="#000000" opacity="1.000000" stroke="none" 
	d="
M205.531342,0.999996 
	C205.080261,1.795919 204.288666,2.963786 203.221390,3.331480 
	C189.221420,8.154764 179.059189,17.607746 171.089188,29.730835 
	C162.421005,42.915932 153.783951,56.121521 145.154404,69.331947 
	C144.431885,70.437996 143.366684,71.627380 143.316605,72.814163 
	C143.052292,79.077614 138.928375,81.227165 133.773926,83.199776 
	C115.333641,90.256859 97.035233,97.684372 78.674179,104.949066 
	C74.256302,106.697029 71.234177,111.015472 72.200752,114.809799 
	C73.436073,119.659119 77.000038,121.053757 81.691330,121.034492 
	C102.686531,120.948311 123.682304,121.015800 144.677795,120.978157 
	C147.649307,120.972816 150.148834,120.961891 151.081085,124.810478 
	C151.915512,128.255157 151.958893,130.327515 148.277039,132.388321 
	C140.622543,136.672653 136.644821,143.408569 136.948593,152.531677 
	C137.208374,160.333954 137.002350,168.151749 137.002350,176.663086 
	C135.697083,176.756332 133.977951,176.982788 132.258438,176.985825 
	C116.595146,177.013443 100.896988,177.658417 85.277534,176.830429 
	C67.138756,175.868896 50.119961,185.802551 43.273251,205.002304 
	C41.245792,205.002304 39.107227,205.214111 37.023285,204.966400 
	C26.913305,203.764603 15.997061,213.936844 16.818735,224.735611 
	C17.650726,235.669968 17.654289,246.767731 16.803604,257.699188 
	C16.074766,267.064911 26.468639,278.632019 36.358105,277.046844 
	C38.459114,276.710114 40.660213,276.997833 42.552444,276.997833 
	C45.430000,281.598297 47.928455,286.491974 51.259121,290.731903 
	C58.386780,299.805450 67.991753,304.756165 79.546112,304.925629 
	C97.849388,305.194122 116.159500,304.997223 133.739166,304.997223 
	C125.275742,310.718506 116.151100,316.307617 107.680161,322.755493 
	C96.339554,331.387695 87.222382,342.165314 80.181442,354.613464 
	C69.564133,373.384460 64.499634,393.420685 64.876686,415.125244 
	C65.383110,444.276947 64.941193,473.444336 65.088844,502.604095 
	C65.105087,505.812103 66.317505,509.014038 66.987564,512.609375 
	C45.012299,513.000000 23.024595,513.000000 1.018446,513.000000 
	C1.018446,342.441040 1.018446,171.882065 1.018446,1.000000 
	C69.020554,1.000000 137.041611,1.000000 205.531342,0.999996 
z"/>
<path fill="#000000" opacity="1.000000" stroke="none" 
	d="
M447.468658,513.000000 
	C447.665985,508.296051 448.881439,503.595276 448.908600,498.887634 
	C449.083282,468.566376 449.147186,438.242676 448.951843,407.921661 
	C448.790497,382.878235 439.694427,360.865692 424.631012,341.276337 
	C412.571442,325.593384 397.162262,314.007233 378.889679,306.301300 
	C378.664886,306.206482 378.573792,305.794617 378.110321,304.997894 
	C381.165222,304.997894 383.914154,304.997864 386.663086,304.997894 
	C401.324402,304.998047 416.015533,304.413147 430.638824,305.158691 
	C446.073883,305.945679 463.573975,296.137939 469.831543,279.154938 
	C470.109650,278.400208 470.418884,277.656952 470.776428,276.748871 
	C477.925201,277.221954 485.360809,278.162445 490.430481,272.141632 
	C493.337769,268.688965 496.424896,264.166443 496.699646,259.947632 
	C497.520874,247.339096 497.065674,234.642258 496.970245,221.980927 
	C496.906769,213.559448 488.339813,204.806717 479.853149,205.133759 
	C473.468353,205.379791 469.772003,204.348511 466.297882,197.620758 
	C459.089386,183.661407 446.580261,176.712906 430.379456,176.949661 
	C414.055573,177.188248 397.725464,177.002167 381.398102,177.002167 
	C379.604553,177.002167 377.811005,177.002167 376.076111,177.002167 
	C376.076111,167.019516 376.578369,157.585052 375.831451,148.250549 
	C375.528412,144.463455 372.995239,140.518509 370.564178,137.344406 
	C368.620605,134.806839 368.976410,133.213745 369.609741,130.367767 
	C371.567474,121.570480 377.096436,120.547417 384.889282,120.831161 
	C400.363098,121.394600 415.872040,120.960716 431.366150,121.020996 
	C435.775208,121.038147 439.896973,120.810669 440.895142,115.315376 
	C441.934174,109.595367 439.917450,106.279831 434.313690,104.112770 
	C415.118744,96.689781 395.931458,89.246841 376.755127,81.775955 
	C375.385468,81.242371 374.127594,80.421890 372.725250,79.686279 
	C373.987701,76.091873 375.446808,72.766083 376.320129,69.292984 
	C378.769623,59.551708 374.877228,49.583485 366.601227,44.097797 
	C347.938843,31.727551 329.273895,19.360355 310.524109,7.123496 
	C307.253723,4.989106 303.563629,3.497764 300.033691,1.354710 
	C370.960724,1.000000 441.921478,1.000000 512.941101,1.000000 
	C512.941101,171.666656 512.941101,342.333344 512.941101,513.000000 
	C491.246643,513.000000 469.591980,513.000000 447.468658,513.000000 
z"/>
<path fill="#F4DACF" opacity="1.000000" stroke="none" 
	d="
M300.075226,250.255341 
	C295.937500,254.885529 290.547363,256.897766 284.556091,256.943237 
	C266.249847,257.082214 247.941467,257.062622 229.634811,256.954285 
	C223.443954,256.917633 218.024200,254.813522 213.475418,250.315979 
	C203.708725,240.659317 195.088226,230.191116 189.017410,217.090790 
	C188.631287,215.959015 188.314011,215.474335 187.996750,214.989655 
	C187.996750,214.989655 188.006775,214.997299 188.025543,214.578949 
	C186.835251,205.993088 185.364914,197.852997 184.503754,189.648987 
	C183.869583,183.607346 182.095718,177.248947 187.728287,172.044647 
	C188.966629,170.900452 188.551590,167.966843 189.151367,165.609344 
	C189.605911,162.958344 189.807037,160.555252 190.066650,157.773941 
	C191.779617,150.419647 194.900131,144.347107 200.909058,140.474945 
	C200.979141,147.517838 200.979141,154.097275 200.979141,160.692596 
	C206.623383,160.692596 211.668030,160.692596 216.687225,160.692596 
	C216.687225,152.674149 216.687225,144.964996 216.687225,136.848297 
	C212.585022,136.848297 208.791031,136.848297 205.183777,136.574356 
	C211.562607,131.395233 217.907028,127.552589 226.475876,127.865097 
	C240.589371,128.379822 254.737442,127.873444 268.865906,128.105118 
	C272.057831,128.157455 275.410400,129.043976 278.372253,130.295898 
	C284.636261,132.943573 290.691223,136.085815 296.903625,139.487045 
	C296.975342,146.862823 296.975342,153.776764 296.975342,160.747894 
	C302.668213,160.747894 307.750122,160.747894 312.835693,160.747894 
	C312.961792,159.013870 313.069824,157.528427 313.392639,156.297760 
	C326.375793,180.091980 324.140686,202.522598 309.957581,224.916412 
	C305.196564,232.433670 303.287720,241.757339 300.075226,250.255341 
M220.559128,206.911255 
	C219.092010,204.973587 217.624908,203.035919 216.244446,201.212708 
	C211.194000,201.212708 206.231537,201.212708 199.615845,201.212708 
	C202.110825,206.368286 203.368240,211.517502 206.529816,214.872086 
	C210.749329,219.349213 216.017029,223.365143 221.591629,225.940125 
	C238.591492,233.792633 256.610901,234.502945 274.847107,231.408447 
	C285.460693,229.607422 295.492401,226.215973 303.822632,219.029800 
	C309.171936,214.415146 312.710876,208.800705 312.929260,201.224121 
	C307.645905,201.224121 302.522156,201.224121 299.490723,201.224121 
	C294.541779,205.137909 291.277161,209.052826 287.113708,210.711075 
	C280.252380,213.443832 272.907288,215.645645 265.592041,216.413849 
	C249.981308,218.053177 234.652145,216.734177 220.559128,206.911255 
M241.798492,169.114563 
	C241.431015,174.268036 241.063522,179.421509 240.669296,184.950043 
	C249.614990,184.950043 257.724762,185.083633 265.826752,184.890442 
	C269.554047,184.801575 272.574066,182.502747 272.690094,178.851257 
	C273.046326,167.641602 272.819733,156.413422 272.819733,145.376678 
	C267.239624,145.376678 262.184174,145.376678 256.681458,145.376678 
	C256.681458,153.469131 256.681458,161.188110 256.681458,169.015549 
	C251.724854,169.015549 247.238937,169.015549 241.798492,169.114563 
z"/>
<path fill="#939E5C" opacity="1.000000" stroke="none" 
	d="
M322.902374,105.817459 
	C257.938232,105.833832 192.974075,105.850189 127.522453,105.546982 
	C127.029335,104.830421 127.023674,104.433441 127.018021,104.036461 
	C136.315659,100.011833 145.636780,96.040283 154.902451,91.943359 
	C160.787766,89.341110 162.008759,86.310982 160.577530,79.975464 
	C160.229370,78.434349 160.523331,76.304001 161.375504,75.004089 
	C170.667603,60.829937 179.766678,46.506207 189.655518,32.753284 
	C198.168350,20.914070 210.456589,16.225151 225.492981,17.591167 
	C227.425308,19.127510 228.701523,20.449312 230.196548,21.441397 
	C243.931137,30.555571 257.742249,39.554752 271.451080,48.707291 
	C280.115601,54.492050 282.047180,61.028324 278.341187,70.637543 
	C276.787781,74.665329 275.370972,78.745789 273.434296,82.869003 
	C257.983124,82.948494 242.884521,84.071793 228.025497,82.664810 
	C212.868668,81.229630 197.951477,77.285179 182.914658,74.519241 
	C181.757782,74.306435 179.617752,74.375557 179.402115,74.907967 
	C177.643204,79.250793 176.233658,83.735115 174.653748,88.364159 
	C178.482452,89.411339 181.494888,90.255943 184.518433,91.058815 
	C202.169525,95.745934 220.042511,99.137711 238.371506,99.054764 
	C253.775589,98.985069 269.182037,98.571953 284.578400,98.046646 
	C291.688538,97.804062 298.777222,96.931305 306.034485,96.633621 
	C309.643402,98.501236 313.156799,99.957169 316.521088,101.700836 
	C318.758423,102.860390 320.782715,104.430893 322.902374,105.817459 
M210.862656,34.178112 
	C206.795776,33.452755 203.160629,33.923035 201.056747,38.053219 
	C199.028061,42.035770 200.509949,46.902428 204.238602,48.857033 
	C207.984711,50.820793 212.716400,49.715851 214.887039,46.370415 
	C217.448807,42.422157 216.155273,37.714149 210.862656,34.178112 
M210.703171,59.262604 
	C210.943726,61.178761 210.839630,63.252235 211.604950,64.928848 
	C211.886703,65.546074 214.896637,65.839806 215.474716,65.203049 
	C216.588974,63.975666 217.718185,61.716579 217.301041,60.358299 
	C216.386917,57.381886 213.837769,57.303528 210.703171,59.262604 
z"/>
<path fill="#F42B4A" opacity="1.000000" stroke="none" 
	d="
M332.896271,496.828369 
	C307.911469,496.885254 282.926697,496.964386 257.941864,496.992798 
	C232.954132,497.021240 207.966324,496.998993 182.978561,496.998962 
	C181.187790,496.998962 179.397018,496.998932 177.306549,496.998932 
	C177.306549,483.586853 177.306549,470.674622 177.306549,457.053406 
	C188.928604,457.053406 200.514801,457.053406 212.879730,457.300232 
	C216.403549,458.190552 219.157043,458.800415 221.892365,459.483002 
	C238.404800,463.603912 254.896317,464.491547 271.668640,460.535645 
	C276.518829,459.391632 281.985046,459.824493 287.002655,460.604095 
	C309.018005,464.024597 324.070465,476.552399 332.896271,496.828369 
z"/>
<path fill="#323526" opacity="1.000000" stroke="none" 
	d="
M305.875610,96.344269 
	C298.777222,96.931305 291.688538,97.804062 284.578400,98.046646 
	C269.182037,98.571953 253.775589,98.985069 238.371506,99.054764 
	C220.042511,99.137711 202.169525,95.745934 184.518433,91.058815 
	C181.494888,90.255943 178.482452,89.411339 174.653748,88.364159 
	C176.233658,83.735115 177.643204,79.250793 179.402115,74.907967 
	C179.617752,74.375557 181.757782,74.306435 182.914658,74.519241 
	C197.951477,77.285179 212.868668,81.229630 228.025497,82.664810 
	C242.884521,84.071793 257.983124,82.948494 273.887390,82.923111 
	C290.117554,81.190872 305.448608,79.562965 320.738312,77.611389 
	C322.288208,77.413567 324.141693,75.540108 324.917999,73.978729 
	C330.949310,61.847878 328.981995,55.069683 317.548126,47.439796 
	C302.352661,37.299789 287.162476,27.151894 271.970001,17.007393 
	C282.920868,17.012852 294.121094,15.702211 304.146484,21.630075 
	C310.875427,25.608807 317.388306,29.964037 323.895294,34.304550 
	C334.284363,41.234627 344.589905,48.289902 354.927277,55.297390 
	C361.197968,59.548161 361.963593,62.283527 359.003967,69.082169 
	C357.476135,72.591858 356.058319,76.153358 354.708313,79.735741 
	C352.110840,86.628311 353.815247,90.290062 360.656555,93.058517 
	C369.297943,96.555458 377.911896,100.120361 386.527863,103.679726 
	C387.349548,104.019165 388.101562,104.527214 388.668762,106.171143 
	C383.971252,105.902184 379.273773,105.633232 373.827148,105.166595 
	C362.481232,100.726059 351.918396,96.394608 341.260010,92.312622 
	C339.039307,91.462128 336.371063,90.929260 334.070435,91.287209 
	C324.638214,92.754745 315.268402,94.623291 305.875610,96.344269 
z"/>
<path fill="#F3C4B4" opacity="1.000000" stroke="none" 
	d="
M300.393799,250.123734 
	C303.287720,241.757339 305.196564,232.433670 309.957581,224.916412 
	C324.140686,202.522598 326.375793,180.091980 313.316406,155.830719 
	C313.025391,149.179688 313.025391,143.250427 313.025391,137.006424 
	C308.094421,137.006424 303.788788,136.891541 299.498596,137.098083 
	C298.580902,137.142258 297.719330,138.352264 296.831909,139.025208 
	C290.691223,136.085815 284.636261,132.943573 278.372253,130.295898 
	C275.410400,129.043976 272.057831,128.157455 268.865906,128.105118 
	C254.737442,127.873444 240.589371,128.379822 226.475876,127.865097 
	C217.907028,127.552589 211.562607,131.395233 204.785141,136.644836 
	C201.855774,136.635864 200.636185,137.532822 200.838959,140.011475 
	C194.900131,144.347107 191.779617,150.419647 189.666565,157.734619 
	C186.258759,157.728317 183.650146,158.334183 183.559128,161.815964 
	C183.470886,165.190826 185.787186,166.257477 188.897934,165.857254 
	C188.551590,167.966843 188.966629,170.900452 187.728287,172.044647 
	C182.095718,177.248947 183.869583,183.607346 184.503754,189.648987 
	C185.364914,197.852997 186.835251,205.993088 188.024811,214.585175 
	C182.187439,204.523193 178.969376,193.195999 178.242523,181.321213 
	C177.449982,168.373276 177.383911,155.380890 177.001160,142.407883 
	C182.569214,135.593307 188.099899,128.747147 193.779846,122.027138 
	C194.210602,121.517532 195.701340,121.877586 196.699356,121.877495 
	C242.181274,121.873322 287.663177,121.872993 333.145111,121.880646 
	C334.269714,121.880836 335.394318,121.975967 337.000885,122.048615 
	C337.000885,128.618958 337.129364,134.907486 336.974670,141.189056 
	C336.630646,155.160919 337.355011,169.296112 335.457184,183.063309 
	C331.849670,209.233582 319.971222,231.666611 300.393799,250.123734 
z"/>
<path fill="#E1CA96" opacity="1.000000" stroke="none" 
	d="
M305.149017,276.928650 
	C303.981232,270.427246 306.033752,265.704437 311.123169,260.999756 
	C328.691925,244.759018 340.788269,224.924835 347.299683,201.794159 
	C348.306061,198.219162 355.186584,193.182297 359.515472,193.048935 
	C365.135101,192.875793 370.764069,193.006638 376.952087,193.006638 
	C376.952087,219.571777 376.952087,245.783829 376.460571,272.470825 
	C352.476501,276.302795 328.876678,277.751984 305.149017,276.928650 
z"/>
<path fill="#E0C996" opacity="1.000000" stroke="none" 
	d="
M137.106796,270.949921 
	C137.106796,245.201752 137.106796,219.453598 137.106796,193.014450 
	C145.642700,193.694443 154.459961,190.529373 161.931290,196.901718 
	C163.568954,198.298492 165.338806,200.149460 165.891602,202.116226 
	C172.501587,225.633545 185.200974,245.366684 202.882370,261.972870 
	C206.239853,265.126160 210.527618,267.380585 208.453461,273.491882 
	C203.668396,273.632172 199.384537,273.203186 195.092392,273.090240 
	C177.719513,272.633209 160.343430,272.298615 142.970505,271.842926 
	C141.009476,271.791473 139.061066,271.259216 137.106796,270.949921 
z"/>
<path fill="#F32C4A" opacity="1.000000" stroke="none" 
	d="
M116.802917,456.806396 
	C105.048759,456.806396 93.294609,456.806396 80.999168,456.806396 
	C80.999168,448.006378 80.977539,439.570679 81.004036,431.135101 
	C81.048370,417.018188 80.340317,402.870148 83.908920,388.968994 
	C89.602760,366.789154 101.193764,348.476898 119.191154,334.272064 
	C120.605011,333.156189 122.142570,332.197052 124.243073,330.732452 
	C127.285835,338.101410 130.172134,345.091400 133.074585,352.924194 
	C133.714096,377.863861 130.640137,401.569489 125.198013,424.976685 
	C122.714226,435.659729 119.620178,446.200897 116.802917,456.806396 
M109.741829,364.270050 
	C111.199898,362.062469 112.931396,359.978912 114.010849,357.599548 
	C114.632698,356.228821 114.730507,353.235687 114.141731,352.962769 
	C112.446434,352.176849 110.216759,352.039673 108.329384,352.380554 
	C107.357597,352.556061 106.465157,354.187866 105.882973,355.336914 
	C102.378372,362.254028 98.988670,369.229248 95.530678,376.170135 
	C93.515831,380.214355 94.473900,382.836395 99.035950,384.640778 
	C98.278313,387.150787 97.520676,389.660767 96.045776,392.171722 
	C93.048340,392.157135 91.269684,393.615936 91.516441,396.640686 
	C91.783554,399.915009 94.336067,400.232056 96.979782,401.058258 
	C96.987549,404.215088 97.251221,407.397034 96.944168,410.522919 
	C96.462700,415.424469 98.497452,418.015259 103.273941,418.850220 
	C109.542358,419.945984 115.453865,417.909943 116.883034,413.773041 
	C121.483711,400.455597 123.702866,386.745789 122.852905,372.657349 
	C122.584930,368.215607 121.504295,363.822845 120.797966,359.422455 
	C116.361565,361.558350 112.877235,363.235870 109.741829,364.270050 
z"/>
<path fill="#F32B4A" opacity="1.000000" stroke="none" 
	d="
M408.973999,456.838440 
	C401.189484,456.838440 393.404968,456.838440 384.999756,456.838440 
	C384.999756,447.089996 384.999969,437.654297 384.999634,428.218567 
	C384.999512,424.888031 385.046173,421.556641 384.986969,418.227142 
	C384.872223,411.774811 382.269867,409.107269 375.878479,409.020386 
	C369.898834,408.939117 363.917206,409.003021 356.978119,409.003021 
	C366.030151,387.464020 374.827332,366.531372 384.112732,345.499512 
	C400.768890,365.193024 408.952972,387.854950 408.994965,413.424438 
	C409.018738,427.895752 408.982971,442.367096 408.973999,456.838440 
z"/>
<path fill="#6D7645" opacity="1.000000" stroke="none" 
	d="
M271.504089,17.006180 
	C287.162476,27.151894 302.352661,37.299789 317.548126,47.439796 
	C328.981995,55.069683 330.949310,61.847878 324.917999,73.978729 
	C324.141693,75.540108 322.288208,77.413567 320.738312,77.611389 
	C305.448608,79.562965 290.117554,81.190872 274.345154,82.856415 
	C275.370972,78.745789 276.787781,74.665329 278.341187,70.637543 
	C282.047180,61.028324 280.115601,54.492050 271.451080,48.707291 
	C257.742249,39.554752 243.931137,30.555571 230.196548,21.441397 
	C228.701523,20.449312 227.425308,19.127510 225.937256,17.652489 
	C240.897339,17.232544 255.967743,17.118757 271.504089,17.006180 
z"/>
<path fill="#CB0033" opacity="1.000000" stroke="none" 
	d="
M409.440887,456.895935 
	C408.982971,442.367096 409.018738,427.895752 408.994965,413.424438 
	C408.952972,387.854950 400.768890,365.193024 384.326965,345.217712 
	C385.850433,340.450317 387.647919,335.865479 389.656860,330.741302 
	C399.153290,336.783356 406.475586,344.129150 412.763672,352.498718 
	C425.847931,369.914001 432.569733,389.620667 432.933807,411.373962 
	C433.183716,426.306213 432.981689,441.246002 432.981689,456.953430 
	C425.050751,456.953430 417.479248,456.953430 409.440887,456.895935 
z"/>
<path fill="#E1CA96" opacity="1.000000" stroke="none" 
	d="
M58.752014,270.205048 
	C58.410587,268.954926 57.783554,267.707672 57.770958,266.454254 
	C57.605522,249.986221 56.563034,233.449020 57.723717,217.069717 
	C58.695244,203.359848 68.427940,193.873016 79.337288,193.133453 
	C84.960510,192.752243 90.630867,193.066483 96.974236,193.066483 
	C96.974236,218.504364 96.974236,243.755676 96.455795,269.490356 
	C83.542244,270.050812 71.147133,270.127930 58.752014,270.205048 
M81.286072,218.158218 
	C85.219955,214.437912 86.219994,210.286743 83.673424,206.838074 
	C81.260887,203.570923 77.932159,202.481033 74.019539,203.987091 
	C69.752556,205.629562 68.459824,209.016876 69.197395,213.196198 
	C70.044342,217.995300 74.035194,219.781509 81.286072,218.158218 
M75.617691,230.939545 
	C77.181190,231.842117 78.665321,233.077835 80.348328,233.478760 
	C80.996422,233.633148 82.926636,231.772919 82.823318,231.032959 
	C82.587708,229.345444 81.819382,226.809494 80.617699,226.361588 
	C77.625519,225.246292 75.539597,226.751205 75.617691,230.939545 
z"/>
<path fill="#6E7745" opacity="1.000000" stroke="none" 
	d="
M362.973480,318.044952 
	C363.471252,318.057220 363.988556,317.984711 364.463959,318.094116 
	C375.451355,320.623108 375.877167,321.672913 371.587463,331.855408 
	C361.436371,355.951050 351.355713,380.077362 341.458099,404.277771 
	C339.939850,407.990051 337.933929,409.095398 334.023163,409.085327 
	C283.204529,408.954468 232.384918,408.891815 181.567215,409.146362 
	C175.810867,409.175140 172.891846,407.362732 172.332733,401.523682 
	C181.822281,401.043640 190.885071,400.990814 200.421799,400.957245 
	C238.614212,400.963470 276.332703,400.950439 314.513794,400.953003 
	C317.636658,400.981293 320.332306,400.723114 322.949463,401.065216 
	C327.804565,401.699799 329.903717,399.464203 331.644836,395.081207 
	C338.269196,378.405304 345.411163,361.935883 352.230743,345.336304 
	C355.945496,336.294189 359.401031,327.145538 362.973480,318.044952 
z"/>
<path fill="#F4DACF" opacity="1.000000" stroke="none" 
	d="
M287.411835,316.135925 
	C280.434814,324.154083 273.561127,332.265533 266.440521,340.154144 
	C262.423920,344.603973 256.481201,344.682281 252.403137,340.189819 
	C243.578278,330.468140 235.008362,320.513855 226.419357,310.581085 
	C225.632767,309.671448 225.071976,308.234955 225.061432,307.037354 
	C224.960724,295.587219 225.001251,284.135834 225.001251,273.020691 
	C233.260849,273.020691 241.159882,273.020691 249.535675,273.502930 
	C251.270477,280.996338 252.462738,288.020142 253.804642,295.015228 
	C255.203262,302.305847 259.321411,307.350006 266.509888,309.629669 
	C273.465454,311.835510 280.443604,313.970062 287.411835,316.135925 
z"/>
<path fill="#E0C996" opacity="1.000000" stroke="none" 
	d="
M417.146820,261.927765 
	C417.146820,239.190079 417.146820,216.452377 417.146820,193.640762 
	C424.139587,193.640762 431.189636,192.669449 437.853485,193.859955 
	C448.872772,195.828568 456.448212,207.116623 456.910675,220.558273 
	C457.144684,227.360046 456.939728,234.176956 456.527771,241.527924 
	C443.130493,248.688492 430.138641,255.308121 417.146820,261.927765 
z"/>
<path fill="#929E5C" opacity="1.000000" stroke="none" 
	d="
M199.947861,400.937958 
	C190.885071,400.990814 181.822281,401.043640 172.276398,401.153931 
	C167.705292,391.752441 163.545197,382.323914 159.545792,372.827667 
	C153.214111,357.793671 146.986130,342.716003 140.726395,327.651764 
	C140.098663,326.141144 139.554550,324.595825 138.501480,321.833252 
	C146.106247,319.503296 153.291565,317.140350 160.601654,315.263275 
	C161.533005,315.024109 163.976990,317.133942 164.269775,318.472748 
	C170.052719,344.914734 182.855103,368.649414 193.107697,393.352234 
	C194.192108,395.965088 197.165085,397.794098 199.609955,400.270325 
	C199.957993,400.553955 199.947861,400.937958 199.947861,400.937958 
M149.267014,334.785736 
	C151.185272,334.146606 153.344940,333.827850 154.875656,332.674438 
	C155.338913,332.325378 154.503510,329.163391 153.438782,328.223450 
	C152.599213,327.482269 149.345215,327.772644 149.160904,328.301239 
	C148.521759,330.134399 148.754074,332.271423 149.267014,334.785736 
z"/>
<path fill="#E3EDED" opacity="1.000000" stroke="none" 
	d="
M241.068100,351.950684 
	C240.837921,352.719208 240.856949,353.834961 240.340942,354.205261 
	C228.461945,362.730408 216.524750,371.174469 204.127838,379.967346 
	C198.234894,366.337891 192.515411,353.109650 186.587280,339.398834 
	C195.246216,334.526550 203.752625,329.740082 212.757812,325.211182 
	C219.275513,332.509186 225.038330,339.795593 231.443436,346.465210 
	C233.896164,349.019257 237.816528,350.163849 241.068100,351.950684 
z"/>
<path fill="#F3C4B4" opacity="1.000000" stroke="none" 
	d="
M287.720215,315.939575 
	C280.443604,313.970062 273.465454,311.835510 266.509888,309.629669 
	C259.321411,307.350006 255.203262,302.305847 253.804642,295.015228 
	C252.462738,288.020142 251.270477,280.996338 249.998627,273.573608 
	C250.813187,273.107849 251.641556,273.007172 252.470001,273.006470 
	C264.754272,272.996368 277.038544,272.999512 289.838257,272.999512 
	C289.838257,286.309845 289.876038,299.580383 289.760284,312.849579 
	C289.751831,313.819092 288.631836,314.778900 287.720215,315.939575 
z"/>
<path fill="#A89871" opacity="1.000000" stroke="none" 
	d="
M417.094086,262.398499 
	C430.138641,255.308121 443.130493,248.688492 456.453064,241.985107 
	C456.563141,250.503067 457.302246,259.263611 455.910767,267.671570 
	C453.438324,282.611023 443.831116,289.874268 428.768585,289.885712 
	C425.138611,289.888458 421.508667,289.886108 417.041351,289.886108 
	C417.041351,280.629028 417.041351,271.749146 417.094086,262.398499 
z"/>
<path fill="#939F5C" opacity="1.000000" stroke="none" 
	d="
M177.139877,432.915924 
	C177.139877,430.472229 177.139877,428.028503 177.139877,425.303406 
	C230.441971,425.303406 283.259186,425.303406 336.953918,425.303406 
	C336.953918,427.572815 336.953918,429.803894 336.449402,432.498657 
	C283.009888,432.946869 230.074890,432.931396 177.139877,432.915924 
z"/>
<path fill="#6E7745" opacity="1.000000" stroke="none" 
	d="
M177.100067,433.366180 
	C230.074890,432.931396 283.009888,432.946869 336.402527,432.939056 
	C336.901886,434.410278 337.411804,436.113617 336.862732,437.344543 
	C336.225739,438.772614 334.816254,440.043793 333.437927,440.884369 
	C332.587097,441.403198 331.168915,440.997070 330.005463,440.997101 
	C281.304077,440.998016 232.602722,440.999084 183.901352,440.996521 
	C176.955597,440.996155 176.955597,440.987671 177.100067,433.366180 
z"/>
<path fill="#A99871" opacity="1.000000" stroke="none" 
	d="
M137.053070,271.418518 
	C139.061066,271.259216 141.009476,271.791473 142.970505,271.842926 
	C160.343430,272.298615 177.719513,272.633209 195.092392,273.090240 
	C199.384537,273.203186 203.668396,273.632172 208.386963,273.914978 
	C208.817886,278.705475 208.817886,283.496887 208.817886,288.640076 
	C184.954117,288.640076 161.392990,288.640076 136.999329,288.640076 
	C136.999329,283.063568 136.999329,277.475372 137.053070,271.418518 
z"/>
<path fill="#CC0133" opacity="1.000000" stroke="none" 
	d="
M333.326813,496.884796 
	C324.070465,476.552399 309.018005,464.024597 287.002655,460.604095 
	C281.985046,459.824493 276.518829,459.391632 271.668640,460.535645 
	C254.896317,464.491547 238.404800,463.603912 221.892365,459.483002 
	C219.157043,458.800415 216.403549,458.190552 213.347900,457.355103 
	C253.526047,457.121338 294.014740,457.077972 334.503448,457.052551 
	C335.133636,457.052155 335.763947,457.272766 336.952515,457.494293 
	C336.952515,470.015381 337.003876,482.458984 336.816162,494.899048 
	C336.805634,495.595032 334.822418,496.261200 333.326813,496.884796 
z"/>
<path fill="#CB0133" opacity="1.000000" stroke="none" 
	d="
M117.279663,456.873718 
	C119.620178,446.200897 122.714226,435.659729 125.198013,424.976685 
	C130.640137,401.569489 133.714096,377.863861 133.132904,353.286804 
	C141.042007,371.249969 148.908951,389.693268 157.145905,409.004028 
	C150.227966,409.004028 144.307892,408.951111 138.389160,409.018066 
	C131.690994,409.093781 129.053238,411.715973 129.021301,418.451874 
	C128.961533,431.057068 129.004089,443.662811 129.004089,456.941040 
	C124.946503,456.941040 121.351448,456.941040 117.279663,456.873718 
z"/>
<path fill="#919D5B" opacity="1.000000" stroke="none" 
	d="
M362.630096,317.898621 
	C359.401031,327.145538 355.945496,336.294189 352.230743,345.336304 
	C345.411163,361.935883 338.269196,378.405304 331.644836,395.081207 
	C329.903717,399.464203 327.804565,401.699799 322.949463,401.065216 
	C320.332306,400.723114 317.636658,400.981293 314.508636,400.762085 
	C314.040833,400.555542 314.041809,400.172394 314.041809,400.172394 
	C316.268036,398.192505 319.449951,396.642670 320.565765,394.163116 
	C327.917419,377.826569 335.112213,361.404755 341.749268,344.767822 
	C344.865021,336.957642 346.962036,328.685394 348.875671,320.472260 
	C350.010193,315.602905 351.946686,313.906036 356.668854,315.844025 
	C358.494965,316.593414 360.411438,317.122742 362.630096,317.898621 
z"/>
<path fill="#A99871" opacity="1.000000" stroke="none" 
	d="
M305.097229,277.393127 
	C328.876678,277.751984 352.476501,276.302795 376.392517,272.929657 
	C376.815948,278.040527 376.815948,283.167480 376.815948,288.641174 
	C352.945953,288.641174 329.380035,288.641174 305.045441,288.641174 
	C305.045441,285.034668 305.045441,281.446106 305.097229,277.393127 
z"/>
<path fill="#E4EEEE" opacity="1.000000" stroke="none" 
	d="
M297.813263,371.189697 
	C290.259552,365.824341 282.705841,360.458984 274.783722,354.831940 
	C283.094940,345.419312 291.164062,336.280884 299.830475,327.155090 
	C303.567963,329.587341 306.984558,331.737152 309.726593,334.545563 
	C311.011566,335.861633 312.026794,338.872742 311.402283,340.390747 
	C307.134430,350.764771 302.398376,360.946198 297.813263,371.189697 
z"/>
<path fill="#939F5C" opacity="1.000000" stroke="none" 
	d="
M393.566223,288.312653 
	C393.182068,271.652222 393.063873,255.336044 393.010895,239.019669 
	C392.967621,225.694229 393.002197,212.368530 393.002228,199.042953 
	C393.002228,197.253143 393.002197,195.463318 393.002197,193.344391 
	C395.799591,193.344391 398.031738,193.344391 400.634491,193.344391 
	C400.634491,225.054291 400.634491,256.610779 400.634491,288.656830 
	C398.335754,288.656830 396.098083,288.656830 393.566223,288.312653 
z"/>
<path fill="#939F5C" opacity="1.000000" stroke="none" 
	d="
M113.002121,269.999451 
	C113.002121,244.233154 113.002121,218.966766 113.002121,193.356842 
	C115.777023,193.356842 118.010391,193.356842 120.622421,193.356842 
	C120.622421,225.015518 120.622421,256.561127 120.622421,288.549438 
	C118.401169,288.549438 116.174683,288.549438 113.002121,288.549438 
	C113.002121,282.642761 113.002121,276.571045 113.002121,269.999451 
z"/>
<path fill="#F22B4A" opacity="1.000000" stroke="none" 
	d="
M269.465271,371.544342 
	C275.494293,375.871307 281.236359,379.981110 287.849670,384.714478 
	C266.993286,384.714478 247.367538,384.714478 226.275482,384.714478 
	C234.975647,378.445984 242.583710,372.965332 250.190750,367.483215 
	C257.004761,362.572601 257.004303,362.571777 263.916840,367.542053 
	C265.670959,368.803314 267.424469,370.065430 269.465271,371.544342 
z"/>
<path fill="#ACB3B3" opacity="1.000000" stroke="none" 
	d="
M297.997711,371.470734 
	C302.398376,360.946198 307.134430,350.764771 311.402283,340.390747 
	C312.026794,338.872742 311.011566,335.861633 309.726593,334.545563 
	C306.984558,331.737152 303.567963,329.587341 300.121887,326.992493 
	C301.285217,326.424774 303.196625,325.235016 304.153748,325.765839 
	C311.844269,330.031219 319.354797,334.621063 327.386017,339.388123 
	C321.520966,352.991669 315.759766,366.354248 309.824951,380.119598 
	C305.683350,377.142975 301.932770,374.447357 297.997711,371.470734 
z"/>
<path fill="#A89871" opacity="1.000000" stroke="none" 
	d="
M58.803238,270.566406 
	C71.147133,270.127930 83.542244,270.050812 96.396042,269.951080 
	C96.854713,276.042480 96.854713,282.156494 96.854713,288.225830 
	C77.472664,290.601501 65.668945,289.306824 58.803238,270.566406 
z"/>
<path fill="#727A48" opacity="1.000000" stroke="none" 
	d="
M306.034485,96.633621 
	C315.268402,94.623291 324.638214,92.754745 334.070435,91.287209 
	C336.371063,90.929260 339.039307,91.462128 341.260010,92.312622 
	C351.918396,96.394608 362.481232,100.726059 373.418823,105.038635 
	C372.000977,105.376534 370.243469,105.868294 368.483398,105.877716 
	C353.604309,105.957405 338.724762,105.949043 323.373840,105.892288 
	C320.782715,104.430893 318.758423,102.860390 316.521088,101.700836 
	C313.156799,99.957169 309.643402,98.501236 306.034485,96.633621 
z"/>
<path fill="#F4C5B5" opacity="1.000000" stroke="none" 
	d="
M104.984291,473.166534 
	C112.770561,473.166534 120.556831,473.166534 128.670258,473.166534 
	C128.670258,480.983459 128.670258,488.691467 128.670258,496.973328 
	C121.082733,496.973328 113.498444,496.973328 105.452850,496.445404 
	C104.989120,488.333832 104.986702,480.750183 104.984291,473.166534 
z"/>
<path fill="#939F5C" opacity="1.000000" stroke="none" 
	d="
M152.915985,496.860107 
	C150.480179,496.860107 148.044373,496.860107 145.308838,496.860107 
	C145.308838,472.897125 145.308838,449.404633 145.308838,425.046082 
	C147.579666,425.046082 149.807312,425.046082 152.498627,425.550598 
	C152.946869,449.656769 152.931442,473.258423 152.915985,496.860107 
z"/>
<path fill="#6E7745" opacity="1.000000" stroke="none" 
	d="
M153.366226,496.899902 
	C152.931442,473.258423 152.946869,449.656769 152.939041,425.597473 
	C154.406082,425.098083 156.101715,424.591888 157.332916,425.136230 
	C158.760986,425.767578 160.814240,427.311584 160.825378,428.476379 
	C161.032913,450.187866 161.047150,471.902283 160.926331,493.615082 
	C160.895874,499.089508 156.400284,496.256775 153.366226,496.899902 
z"/>
<path fill="#F4C5B5" opacity="1.000000" stroke="none" 
	d="
M408.984222,473.166534 
	C416.770508,473.166534 424.556793,473.166534 432.670258,473.166534 
	C432.670258,480.983582 432.670258,488.691864 432.670258,496.973328 
	C425.082733,496.973328 417.498444,496.973328 409.452881,496.445404 
	C408.989136,488.333832 408.986664,480.750183 408.984222,473.166534 
z"/>
<path fill="#939F5C" opacity="1.000000" stroke="none" 
	d="
M360.915955,496.860107 
	C358.480164,496.860107 356.044342,496.860107 353.308838,496.860107 
	C353.308838,472.897095 353.308838,449.404602 353.308838,425.046082 
	C355.579712,425.046082 357.807343,425.046082 360.498657,425.550598 
	C360.946838,449.656769 360.931396,473.258423 360.915955,496.860107 
z"/>
<path fill="#6E7745" opacity="1.000000" stroke="none" 
	d="
M361.366211,496.899902 
	C360.931396,473.258423 360.946838,449.656769 360.939056,425.597473 
	C362.406097,425.098083 364.101776,424.591858 365.332947,425.136200 
	C366.760986,425.767578 368.814117,427.311615 368.825256,428.476440 
	C369.032837,450.187927 369.047119,471.902283 368.926300,493.615082 
	C368.895844,499.089661 364.400208,496.256714 361.366211,496.899902 
z"/>
<path fill="#F5DBD0" opacity="1.000000" stroke="none" 
	d="
M408.521362,473.094971 
	C408.986664,480.750183 408.989136,488.333832 408.987854,496.375488 
	C401.198273,496.833466 393.412476,496.833466 385.314484,496.833466 
	C385.314484,489.017212 385.314484,481.304138 385.314484,473.023376 
	C392.889282,473.023376 400.473877,473.023376 408.521362,473.094971 
z"/>
<path fill="#F5DBD0" opacity="1.000000" stroke="none" 
	d="
M104.521400,473.094971 
	C104.986702,480.750183 104.989120,488.333832 104.987823,496.375488 
	C97.198227,496.833466 89.412346,496.833466 81.314476,496.833466 
	C81.314476,489.017181 81.314476,481.304138 81.314476,473.023376 
	C88.889297,473.023376 96.473900,473.023376 104.521400,473.094971 
M89.588333,475.473297 
	C86.360405,476.322388 84.980576,478.572021 86.731888,481.295807 
	C87.395447,482.327820 90.694511,482.680908 92.132698,481.983398 
	C94.943649,480.620148 94.062347,477.816040 89.588333,475.473297 
z"/>
<path fill="#E0C995" opacity="1.000000" stroke="none" 
	d="
M41.002544,253.718781 
	C40.985668,255.178238 41.349964,256.445282 40.873680,257.110291 
	C39.842476,258.550140 38.096138,260.890137 37.158924,260.669281 
	C35.568707,260.294617 33.242928,258.260651 33.199593,256.862915 
	C32.871014,246.264587 32.872536,235.646637 33.207951,225.048645 
	C33.251389,223.676239 35.793262,222.382889 37.177826,221.052917 
	C38.450718,222.669540 40.758003,224.244873 40.824440,225.909622 
	C41.187721,235.012085 41.000565,244.136536 41.002544,253.718781 
z"/>
<path fill="#E0C995" opacity="1.000000" stroke="none" 
	d="
M472.997467,249.914810 
	C472.998199,241.762299 473.029694,234.097733 472.983551,226.433609 
	C472.966797,223.651978 473.567322,221.208725 476.821625,221.116562 
	C480.408752,221.014999 481.027466,223.602753 481.015289,226.580414 
	C480.975769,236.244049 480.976746,245.908051 481.014679,255.571701 
	C481.025604,258.353088 480.414001,260.792572 477.159332,260.876373 
	C473.567505,260.968781 472.905548,258.377533 472.990479,255.401199 
	C473.037994,253.736404 472.998016,252.069092 472.997467,249.914810 
z"/>
<path fill="#F2D8CE" opacity="1.000000" stroke="none" 
	d="
M352.993744,167.914642 
	C352.993744,160.136459 352.993744,152.845932 352.993744,145.527451 
	C358.731201,146.431503 360.884888,148.747833 360.988159,154.187958 
	C361.069977,158.497437 361.085114,162.811676 360.982635,167.120300 
	C360.857208,172.392563 358.913696,174.758713 352.993744,176.793427 
	C352.993744,173.901657 352.993744,171.151962 352.993744,167.914642 
z"/>
<path fill="#F2D8CE" opacity="1.000000" stroke="none" 
	d="
M152.994110,165.640976 
	C152.997177,161.198074 152.919830,157.211517 153.024429,153.229736 
	C153.150772,148.420303 155.464554,145.535675 160.755737,145.083237 
	C160.755737,155.668365 160.755737,166.053909 160.755737,176.826401 
	C156.080673,174.628571 152.716476,171.747498 152.994110,165.640976 
z"/>
<path fill="#ACB3B3" opacity="1.000000" stroke="none" 
	d="
M240.986313,351.621155 
	C237.816528,350.163849 233.896164,349.019257 231.443436,346.465210 
	C225.038330,339.795593 219.275513,332.509186 213.115265,325.156067 
	C214.975632,322.498291 216.564041,322.840302 218.523880,325.177551 
	C225.889374,333.961639 233.429688,342.599182 240.986313,351.621155 
z"/>
<path fill="#ED2B49" opacity="1.000000" stroke="none" 
	d="
M182.077026,323.335144 
	C181.061005,319.970459 180.336533,316.816650 179.518372,313.254974 
	C186.463974,313.254974 192.679474,313.254974 198.894958,313.254974 
	C199.040726,313.527374 199.186493,313.799744 199.332245,314.072144 
	C193.677689,317.230103 188.023117,320.388092 182.077026,323.335144 
z"/>
<path fill="#ED2B49" opacity="1.000000" stroke="none" 
	d="
M326.933472,312.983215 
	C329.530548,312.983215 331.645264,312.983215 334.446838,312.983215 
	C333.698792,316.792969 333.080597,319.941406 332.265472,324.092834 
	C325.993561,320.510162 320.391907,317.310364 314.790222,314.110565 
	C314.838257,313.734772 314.886261,313.358978 314.934265,312.983185 
	C318.773224,312.983185 322.612152,312.983185 326.933472,312.983215 
z"/>
<path fill="#808954" opacity="1.000000" stroke="none" 
	d="
M313.572906,400.116760 
	C314.041809,400.172394 314.040833,400.555542 314.046021,400.746460 
	C276.332703,400.950439 238.614212,400.963470 200.421799,400.957245 
	C199.947861,400.937958 199.957993,400.553955 199.957428,400.362030 
	C237.672577,400.133759 275.388306,400.097412 313.572906,400.116760 
z"/>
<path fill="#727A48" opacity="1.000000" stroke="none" 
	d="
M126.716095,104.055435 
	C127.023674,104.433441 127.029335,104.830421 127.059769,105.523987 
	C126.155243,105.864876 125.225929,105.909164 122.793175,106.025116 
	C124.870163,104.906204 125.642174,104.490303 126.716095,104.055435 
z"/>
<path fill="#F3C4B4" opacity="1.000000" stroke="none" 
	d="
M187.996887,215.290741 
	C188.314011,215.474335 188.631287,215.959015 188.969940,216.739258 
	C188.659897,216.553833 188.328461,216.072830 187.996887,215.290741 
z"/>
<path fill="#363535" opacity="1.000000" stroke="none" 
	d="
M220.841324,207.147675 
	C234.652145,216.734177 249.981308,218.053177 265.592041,216.413849 
	C272.907288,215.645645 280.252380,213.443832 287.113708,210.711075 
	C291.277161,209.052826 294.541779,205.137909 299.490723,201.224121 
	C302.522156,201.224121 307.645905,201.224121 312.929260,201.224121 
	C312.710876,208.800705 309.171936,214.415146 303.822632,219.029800 
	C295.492401,226.215973 285.460693,229.607422 274.847107,231.408447 
	C256.610901,234.502945 238.591492,233.792633 221.591629,225.940125 
	C216.017029,223.365143 210.749329,219.349213 206.529816,214.872086 
	C203.368240,211.517502 202.110825,206.368286 199.615845,201.212708 
	C206.231537,201.212708 211.194000,201.212708 216.244446,201.212708 
	C217.624908,203.035919 219.092010,204.973587 220.841324,207.147675 
z"/>
<path fill="#343333" opacity="1.000000" stroke="none" 
	d="
M242.275757,169.065063 
	C247.238937,169.015549 251.724854,169.015549 256.681458,169.015549 
	C256.681458,161.188110 256.681458,153.469131 256.681458,145.376678 
	C262.184174,145.376678 267.239624,145.376678 272.819733,145.376678 
	C272.819733,156.413422 273.046326,167.641602 272.690094,178.851257 
	C272.574066,182.502747 269.554047,184.801575 265.826752,184.890442 
	C257.724762,185.083633 249.614990,184.950043 240.669296,184.950043 
	C241.063522,179.421509 241.431015,174.268036 242.275757,169.065063 
z"/>
<path fill="#333333" opacity="1.000000" stroke="none" 
	d="
M200.909058,140.474945 
	C200.636185,137.532822 201.855774,136.635864 204.598389,136.918777 
	C208.791031,136.848297 212.585022,136.848297 216.687225,136.848297 
	C216.687225,144.964996 216.687225,152.674149 216.687225,160.692596 
	C211.668030,160.692596 206.623383,160.692596 200.979141,160.692596 
	C200.979141,154.097275 200.979141,147.517838 200.909058,140.474945 
z"/>
<path fill="#333333" opacity="1.000000" stroke="none" 
	d="
M296.903625,139.487030 
	C297.719330,138.352264 298.580902,137.142258 299.498596,137.098083 
	C303.788788,136.891541 308.094421,137.006424 313.025391,137.006424 
	C313.025391,143.250427 313.025391,149.179688 313.101624,155.575974 
	C313.069824,157.528427 312.961792,159.013870 312.835693,160.747894 
	C307.750122,160.747894 302.668213,160.747894 296.975342,160.747894 
	C296.975342,153.776764 296.975342,146.862823 296.903625,139.487030 
z"/>
<path fill="#FEFEFC" opacity="1.000000" stroke="none" 
	d="
M189.151367,165.609344 
	C185.787186,166.257477 183.470886,165.190826 183.559128,161.815964 
	C183.650146,158.334183 186.258759,157.728317 189.608078,158.112854 
	C189.807037,160.555252 189.605911,162.958344 189.151367,165.609344 
z"/>
<path fill="#FCFCFA" opacity="1.000000" stroke="none" 
	d="
M211.239929,34.323769 
	C216.155273,37.714149 217.448807,42.422157 214.887039,46.370415 
	C212.716400,49.715851 207.984711,50.820793 204.238602,48.857033 
	C200.509949,46.902428 199.028061,42.035770 201.056747,38.053219 
	C203.160629,33.923035 206.795776,33.452755 211.239929,34.323769 
z"/>
<path fill="#F8F9F5" opacity="1.000000" stroke="none" 
	d="
M210.986084,58.980080 
	C213.837769,57.303528 216.386917,57.381886 217.301041,60.358299 
	C217.718185,61.716579 216.588974,63.975666 215.474716,65.203049 
	C214.896637,65.839806 211.886703,65.546074 211.604950,64.928848 
	C210.839630,63.252235 210.943726,61.178761 210.986084,58.980080 
z"/>
<path fill="#F6556E" opacity="1.000000" stroke="none" 
	d="
M96.763031,392.170776 
	C97.520676,389.660767 98.278313,387.150787 99.333900,384.047363 
	C100.798325,382.037659 102.293343,380.780212 103.069206,379.175140 
	C105.331177,374.495697 107.305702,369.677307 109.392914,364.913391 
	C112.877235,363.235870 116.361565,361.558350 120.797966,359.422455 
	C121.504295,363.822845 122.584930,368.215607 122.852905,372.657349 
	C123.702866,386.745789 121.483711,400.455597 116.883034,413.773041 
	C115.453865,417.909943 109.542358,419.945984 103.273941,418.850220 
	C98.497452,418.015259 96.462700,415.424469 96.944168,410.522919 
	C97.251221,407.397034 96.987549,404.215088 97.238091,400.396484 
	C100.411423,396.907104 99.777763,394.423492 96.763031,392.170776 
z"/>
<path fill="#FFF8F9" opacity="1.000000" stroke="none" 
	d="
M109.567368,364.591736 
	C107.305702,369.677307 105.331177,374.495697 103.069206,379.175140 
	C102.293343,380.780212 100.798325,382.037659 99.343292,383.634094 
	C94.473900,382.836395 93.515831,380.214355 95.530678,376.170135 
	C98.988670,369.229248 102.378372,362.254028 105.882973,355.336914 
	C106.465157,354.187866 107.357597,352.556061 108.329384,352.380554 
	C110.216759,352.039673 112.446434,352.176849 114.141731,352.962769 
	C114.730507,353.235687 114.632698,356.228821 114.010849,357.599548 
	C112.931396,359.978912 111.199898,362.062469 109.567368,364.591736 
z"/>
<path fill="#FFF8F9" opacity="1.000000" stroke="none" 
	d="
M96.404404,392.171265 
	C99.777763,394.423492 100.411423,396.907104 97.232727,399.938660 
	C94.336067,400.232056 91.783554,399.915009 91.516441,396.640686 
	C91.269684,393.615936 93.048340,392.157135 96.404404,392.171265 
z"/>
<path fill="#FEFEFC" opacity="1.000000" stroke="none" 
	d="
M80.935707,218.363235 
	C74.035194,219.781509 70.044342,217.995300 69.197395,213.196198 
	C68.459824,209.016876 69.752556,205.629562 74.019539,203.987091 
	C77.932159,202.481033 81.260887,203.570923 83.673424,206.838074 
	C86.219994,210.286743 85.219955,214.437912 80.935707,218.363235 
z"/>
<path fill="#FCFCFA" opacity="1.000000" stroke="none" 
	d="
M75.520065,230.584747 
	C75.539597,226.751205 77.625519,225.246292 80.617699,226.361588 
	C81.819382,226.809494 82.587708,229.345444 82.823318,231.032959 
	C82.926636,231.772919 80.996422,233.633148 80.348328,233.478760 
	C78.665321,233.077835 77.181190,231.842117 75.520065,230.584747 
z"/>
<path fill="#F8F9F5" opacity="1.000000" stroke="none" 
	d="
M148.960907,334.539276 
	C148.754074,332.271423 148.521759,330.134399 149.160904,328.301239 
	C149.345215,327.772644 152.599213,327.482269 153.438782,328.223450 
	C154.503510,329.163391 155.338913,332.325378 154.875656,332.674438 
	C153.344940,333.827850 151.185272,334.146606 148.960907,334.539276 
z"/>
<path fill="#FEFEFC" opacity="1.000000" stroke="none" 
	d="
M89.944931,475.472229 
	C94.062347,477.816040 94.943649,480.620148 92.132698,481.983398 
	C90.694511,482.680908 87.395447,482.327820 86.731888,481.295807 
	C84.980576,478.572021 86.360405,476.322388 89.944931,475.472229 
z"/>
</svg>