<svg width="20" height="20" viewBox="0 0 20 20" fill="none" xmlns="http://www.w3.org/2000/svg">
<path d="M7.91116 14.2186V5.74902L2.74026 13.3016C2.47444 13.6899 2.75315 14.2186 3.22374 14.2186H7.91116Z" fill="#AAAAAA"/>
<path fill-rule="evenodd" clip-rule="evenodd" d="M9.96158 15.2958V14.2189H15.8208C16.1443 14.2189 16.4068 13.9564 16.4068 13.6329C16.4068 11.8584 16.0478 10.2287 15.3396 8.78887C14.2052 6.48227 12.1576 4.71591 9.96158 3.81317V0.586301C9.96158 0.171849 9.54166 -0.110964 9.15884 0.0421611C9.15689 0.0429424 9.15533 0.0437236 9.15337 0.0441142C8.99595 0.108958 5.64134 1.48821 5.63744 1.48978C5.15658 1.68743 5.15345 2.36907 5.63236 2.57142L8.78974 3.90458V15.2958H0.586853C0.226814 15.2958 -0.0533031 15.6174 0.00861092 15.9934C0.637634 20.1195 0.531267 19.4218 0.543494 19.502C0.586931 19.7883 0.833103 20 1.12279 20H14.2201C16.2371 20 18.0406 18.863 18.9115 17.1363C18.9145 17.1365 18.9175 17.1365 18.9204 17.1368C19.0938 16.7879 19.2286 16.4184 19.3204 16.0348C19.4128 15.6489 19.128 15.2958 18.7506 15.2958H9.96158ZM9.96158 12.2541V5.59911C11.5264 7.55063 11.5287 10.2998 9.96158 12.2541Z" fill="#AAAAAA"/>
</svg>
