<svg width="14" height="18" viewBox="0 0 14 18" fill="none" xmlns="http://www.w3.org/2000/svg">
<path fill-rule="evenodd" clip-rule="evenodd" d="M7 17.1111C7 17.1111 0 12.4444 0 7C2.76642e-08 5.14348 0.737498 3.36301 2.05025 2.05025C3.36301 0.737498 5.14348 0 7 0C8.85652 0 10.637 0.737498 11.9497 2.05025C13.2625 3.36301 14 5.14348 14 7C14 12.4444 7 17.1111 7 17.1111ZM6.99996 9.33293C5.7113 9.33293 4.66663 8.28826 4.66663 6.99959C4.66663 5.71093 5.7113 4.66626 6.99996 4.66626C8.28862 4.66626 9.33329 5.71093 9.33329 6.99959C9.33329 8.28826 8.28862 9.33293 6.99996 9.33293Z" fill="#AAAAAA"/>
</svg>
