<svg width="20" height="20" viewBox="0 0 20 20" fill="none" xmlns="http://www.w3.org/2000/svg">
<path opacity="0.01" fill-rule="evenodd" clip-rule="evenodd" d="M20 0V20H0V0H20Z" fill="#AAAAAA"/>
<path fill-rule="evenodd" clip-rule="evenodd" d="M10.7888 1.6878C8.85798 1.49949 6.92193 1.99075 5.31446 3.07688C3.707 4.163 2.52884 5.77594 1.98311 7.63761C1.43739 9.49928 1.55829 11.493 2.32498 13.2751C2.40488 13.4407 2.4311 13.6272 2.39998 13.8084L1.66664 17.3334C1.63839 17.4686 1.64416 17.6086 1.68343 17.741C1.72271 17.8734 1.79425 17.9939 1.89164 18.0918C1.97148 18.171 2.06654 18.2333 2.17109 18.2748C2.27564 18.3164 2.38752 18.3363 2.49998 18.3334H2.66664L6.23331 17.6168C6.41458 17.595 6.59841 17.6208 6.76664 17.6918C8.54873 18.4585 10.5425 18.5794 12.4041 18.0336C14.2658 17.4879 15.8787 16.3098 16.9649 14.7023C18.051 13.0948 18.5422 11.1588 18.3539 9.22792C18.1656 7.29707 17.3096 5.49242 15.9333 4.1251L15.8916 4.10843C14.5243 2.73218 12.7197 1.87611 10.7888 1.6878ZM6.20367 10.693C6.06663 10.6014 5.95982 10.4713 5.89674 10.319C5.83367 10.1667 5.81717 9.99918 5.84932 9.83753C5.88148 9.67588 5.96084 9.52739 6.07739 9.41085C6.19393 9.2943 6.34242 9.21493 6.50407 9.18278C6.66572 9.15063 6.83327 9.16713 6.98555 9.2302C7.13782 9.29327 7.26797 9.40008 7.35953 9.53713C7.4511 9.67417 7.49998 9.83528 7.49998 10.0001C7.49998 10.2211 7.41218 10.4331 7.2559 10.5894C7.09962 10.7456 6.88766 10.8334 6.66664 10.8334C6.50182 10.8334 6.34071 10.7846 6.20367 10.693ZM9.537 10.693C9.39996 10.6014 9.29315 10.4713 9.23008 10.319C9.167 10.1667 9.1505 9.99918 9.18265 9.83753C9.21481 9.67588 9.29418 9.52739 9.41072 9.41085C9.52726 9.2943 9.67575 9.21493 9.8374 9.18278C9.99905 9.15063 10.1666 9.16713 10.3189 9.2302C10.4711 9.29327 10.6013 9.40008 10.6929 9.53713C10.7844 9.67417 10.8333 9.83528 10.8333 10.0001C10.8333 10.2211 10.7455 10.4331 10.5892 10.5894C10.433 10.7456 10.221 10.8334 9.99998 10.8334C9.83516 10.8334 9.67404 10.7846 9.537 10.693ZM12.8703 10.693C12.7333 10.6014 12.6265 10.4713 12.5634 10.319C12.5003 10.1667 12.4838 9.99918 12.516 9.83753C12.5481 9.67588 12.6275 9.52739 12.7441 9.41085C12.8606 9.2943 13.0091 9.21493 13.1707 9.18278C13.3324 9.15063 13.4999 9.16713 13.6522 9.2302C13.8045 9.29327 13.9346 9.40008 14.0262 9.53713C14.1178 9.67417 14.1666 9.83528 14.1666 10.0001C14.1666 10.2211 14.0788 10.4331 13.9226 10.5894C13.7663 10.7456 13.5543 10.8334 13.3333 10.8334C13.1685 10.8334 13.0074 10.7846 12.8703 10.693Z" fill="#AAAAAA"/>
</svg>
