<svg width="30" height="15" viewBox="0 0 30 15" fill="none" xmlns="http://www.w3.org/2000/svg">
<path d="M19.1446 6.55805C18.9849 6.42022 18.6985 6.46997 18.505 6.66937L18.1721 7.01248C18.4092 7.16306 18.6308 7.30265 18.8316 7.42856L19.0837 7.16901C19.2773 6.96961 19.3048 6.6963 19.1446 6.55805Z" fill="#AAAAAA"/>
<path d="M20.1121 7.01447C19.9525 6.87665 19.666 6.92639 19.4725 7.12579L19.0477 7.56336C19.3511 7.75177 19.5848 7.89413 19.7174 7.96896L20.0512 7.62543C20.2448 7.42603 20.2724 7.15272 20.1121 7.01447Z" fill="#AAAAAA"/>
<path d="M21.0801 7.47053C20.9204 7.3327 20.6339 7.38245 20.4405 7.58185L20.007 8.02855C20.2315 8.04911 20.5735 8.07511 20.9969 8.1038L21.0191 8.08149C21.2127 7.88209 21.2403 7.60878 21.0801 7.47053Z" fill="#AAAAAA"/>
<path d="M17.9005 6.83986L18.352 6.41413C18.352 6.41413 17.395 5.79998 16.5487 5.25378C16.3004 5.28717 16.027 5.34824 15.7231 5.4432C16.4248 5.89629 17.2072 6.39911 17.9005 6.83986Z" fill="#AAAAAA"/>
<path d="M8.4578 11.0837C8.36537 10.9784 8.02768 10.6416 6.95882 9.86408C7.11175 10.1972 7.19732 10.5645 7.19732 10.9504C7.19732 12.4625 5.89771 13.6881 4.2942 13.6881C2.69069 13.6881 1.39107 12.4625 1.39107 10.9504C1.39107 9.43835 2.69069 8.21282 4.2942 8.21282C4.42337 8.21282 4.54969 8.22331 4.67406 8.23883C4.09537 7.80353 3.61926 7.40296 3.2539 7.02563C1.38627 7.46454 0 9.05288 0 10.9505C0 13.1867 1.92234 15 4.29429 15C5.88765 14.9999 7.27534 14.1796 8.01656 12.9645C8.20622 12.5876 8.54205 11.7476 8.4578 11.0837Z" fill="#AAAAAA"/>
<path d="M4.29479 9.12524C3.22736 9.12524 2.35938 9.94383 2.35938 10.9503C2.35938 11.9569 3.22745 12.7754 4.29479 12.7754C5.36214 12.7754 6.23021 11.9568 6.23021 10.9503C6.23021 10.7062 6.17746 10.4744 6.08458 10.2613L5.05976 11.5093C4.87544 11.7342 4.59619 11.8629 4.29381 11.8629C4.078 11.8629 3.8733 11.7967 3.70205 11.6721C3.28011 11.3636 3.20272 10.7897 3.52929 10.3918L4.54931 9.1494C4.46515 9.13892 4.38189 9.12524 4.29479 9.12524Z" fill="#AAAAAA"/>
<path d="M21.7952 8.15689C22.504 8.20203 23.3106 8.25043 24.0848 8.29514C24.4941 8.08299 24.964 7.9616 25.4638 7.9616C27.047 7.9616 28.3306 9.17211 28.3306 10.665C28.3306 12.1579 27.047 13.3684 25.4638 13.3684C24.5846 13.3684 23.7994 12.9942 23.2733 12.407C22.607 12.2209 21.8179 12.0178 21.1173 11.8836C21.6742 13.6517 23.4084 14.9425 25.4638 14.9425C27.9692 14.9425 30 13.0275 30 10.6649C30 8.30236 27.9688 6.38794 25.4638 6.38794C23.9537 6.38794 22.6197 7.08648 21.7952 8.15689Z" fill="#AAAAAA"/>
<path d="M6.96472 1.33961L7.7723 0L6.65701 0.47548C5.32056 1.24012 4.6441 2.06466 4.29333 2.71715C4.91997 2.25635 5.77052 1.79228 6.96472 1.33961Z" fill="#AAAAAA"/>
<path fill-rule="evenodd" clip-rule="evenodd" d="M26.8549 1.85329C26.5345 1.83827 26.2321 1.83089 25.9471 1.83089C24.452 1.83089 23.4325 2.02618 22.7415 2.2703C22.1217 2.8753 20.5129 4.37422 19.7454 4.40979C19.7415 4.40979 19.6907 4.41113 19.6864 4.41113C18.7758 4.41113 15.7283 3.45069 15.5987 3.40958C15.5039 3.37947 15.4381 3.29734 15.4342 3.20339C15.4299 3.10893 15.4874 3.02227 15.5794 2.98435L16.7842 2.48933C16.4543 2.17449 16.2708 2.13842 16.2708 2.13842C14.691 1.37277 12.3951 1.26783 11.2536 1.26783C10.8216 1.26783 10.5549 1.28284 10.5549 1.28284C10.5631 1.13361 10.3744 1.07983 10.0963 1.07983C9.36466 1.07983 8.01469 1.45398 8.01469 1.45398C7.47176 1.63098 6.99859 1.81033 6.57327 1.99011C5.27213 2.53949 4.47763 3.09341 3.95366 3.60899C3.5182 4.0374 3.26412 4.4394 3.05462 4.79072C2.69852 5.38801 2.81799 5.9816 3.82351 6.92652C4.20141 7.28196 4.70653 7.68848 5.35932 8.16346C5.42274 8.20951 5.48511 8.25515 5.55138 8.30263C5.56303 8.31085 5.57318 8.31857 5.5843 8.32679L5.4803 8.45363L5.43627 8.50698L5.2877 8.68717L5.17108 8.82953L4.8566 9.21282L3.84931 10.4399C3.61801 10.7218 3.67272 11.1266 3.97127 11.3447C4.09608 11.4354 4.24322 11.4797 4.38983 11.4797C4.59399 11.4797 4.79629 11.3939 4.93124 11.2297L5.94058 10.0009L6.25265 9.62085L6.38814 9.45609L6.53617 9.2754L6.56232 9.24344L6.68429 9.09512C6.69639 9.10334 6.70608 9.11064 6.71765 9.11886C6.78588 9.16676 6.84682 9.21055 6.91123 9.25619C7.78944 9.88082 8.28922 10.2832 8.56695 10.5328C8.90901 10.8408 8.92262 10.9225 8.92262 10.9225C9.12438 11.9587 8.39855 13.2704 8.39855 13.2704C8.39855 13.2704 16.12 13.2704 16.987 13.2704C17.854 13.2704 18.1967 12.8141 18.1967 12.8141C18.1967 12.8141 18.7812 12.1297 19.2854 11.4453C19.3715 11.3281 19.5937 11.2792 19.9018 11.2792C20.2008 11.2792 20.5826 11.3262 20.9997 11.3992C21.5953 11.5037 22.2626 11.6624 22.8775 11.8254C23.1209 11.8897 23.3532 11.9535 23.5714 12.0156C24.3398 12.2332 24.904 12.4153 24.904 12.4153L24.9054 12.4067C25.0835 12.4578 25.2688 12.4929 25.4642 12.4929C26.5345 12.4929 27.4021 11.6749 27.4021 10.6656C27.4021 9.69971 26.6051 8.9172 25.5987 8.85101L25.6011 8.83826C25.6011 8.83826 25.0171 8.80629 24.2154 8.76024C23.9851 8.74699 23.7373 8.73239 23.4794 8.71737C22.8315 8.67904 22.1261 8.63617 21.4956 8.59506C21.1627 8.57317 20.8521 8.5522 20.5821 8.53257C20.06 8.49423 19.6913 8.46143 19.6275 8.4413C19.6251 8.44037 19.6168 8.43584 19.6139 8.43442C19.5791 8.42074 19.4988 8.37695 19.3866 8.31119C19.2239 8.21631 18.9966 8.07714 18.7184 7.90416C18.6501 7.86171 18.5756 7.81473 18.5026 7.7691C18.2964 7.63999 18.0758 7.50082 17.8431 7.35301C17.7473 7.29236 17.651 7.23121 17.5528 7.16871C16.2038 6.31003 14.699 5.33315 14.699 5.33315C15.1979 5.12368 15.6232 4.98274 15.9914 4.89332C16.3533 4.80574 16.6601 4.76782 16.9243 4.76782C17.8011 4.76782 18.2148 5.17392 18.6754 5.4755C18.9222 5.63699 19.1811 5.69085 19.4162 5.69085C19.8865 5.69085 20.2629 5.4755 20.2629 5.4755C28.1821 1.88156 26.897 1.85329 26.8558 1.85329C26.8554 1.85329 26.8549 1.85329 26.8549 1.85329ZM14.6501 7.35771C14.8504 7.19027 15.1557 7.20713 15.3333 7.39512C15.5108 7.58354 15.4934 7.87195 15.2936 8.03939L13.7951 9.29729L12.9589 8.77719L14.6501 7.35771ZM13.8816 6.48258C14.0592 6.671 14.0417 6.95941 13.8419 7.12685L12.3372 8.39029L11.501 7.8701L13.1984 6.44517C13.3982 6.27773 13.7041 6.29459 13.8816 6.48258ZM15.2524 10.205L14.4163 9.68477L16.1011 8.27033C16.3014 8.10289 16.6062 8.11975 16.7843 8.30775C16.9624 8.49616 16.945 8.78448 16.7452 8.95201L15.2524 10.205Z" fill="#AAAAAA"/>
<path d="M19.6861 4.18151L19.7205 3.95476C19.871 3.94789 20.1124 3.82474 20.4007 3.63221C20.6335 3.4766 20.8967 3.27544 21.1671 3.05322C21.1711 3.05003 21.1749 3.04684 21.1783 3.04407C21.2324 2.99978 21.2862 2.95557 21.3403 2.90993C21.3209 2.91446 21.2977 2.91908 21.2692 2.92268C21.1884 2.93317 21.0635 2.93955 20.8564 2.93955C20.854 2.93955 20.8525 2.93955 20.8501 2.93955C20.0526 2.93955 18.4584 2.85054 17.6784 2.80356C17.5473 2.79585 17.4418 2.78939 17.3644 2.78444C17.3363 2.78259 17.3092 2.78075 17.2894 2.77991L17.1138 2.85197L16.3551 3.16403C16.7195 3.27309 17.1569 3.39951 17.5967 3.51905C17.7109 3.55009 17.8231 3.5797 17.9364 3.6094C18.2911 3.70201 18.6317 3.78464 18.9297 3.84663C19.1576 3.89411 19.3536 3.92691 19.5103 3.94243C19.5723 3.94881 19.6381 3.95661 19.6851 3.95661V4.18244V4.18378H19.6857L19.6861 4.18151Z" fill="#AAAAAA"/>
</svg>
