<svg width="20" height="20" viewBox="0 0 20 20" fill="none" xmlns="http://www.w3.org/2000/svg">
<path opacity="0.01" fill-rule="evenodd" clip-rule="evenodd" d="M20 0V20H0V0H20Z" fill="#AAAAAA"/>
<path d="M5.83332 2.50008C5.83332 2.27907 5.74553 2.06711 5.58925 1.91083C5.43296 1.75455 5.221 1.66675 4.99999 1.66675C4.77898 1.66675 4.56701 1.75455 4.41073 1.91083C4.25445 2.06711 4.16666 2.27907 4.16666 2.50008V11.8167C3.68403 11.9919 3.26704 12.3114 2.97236 12.7319C2.67768 13.1523 2.51959 13.6533 2.51959 14.1667C2.51959 14.6802 2.67768 15.1812 2.97236 15.6016C3.26704 16.0221 3.68403 16.3416 4.16666 16.5167V17.5001C4.16666 17.7211 4.25445 17.9331 4.41073 18.0893C4.56701 18.2456 4.77898 18.3334 4.99999 18.3334C5.221 18.3334 5.43296 18.2456 5.58925 18.0893C5.74553 17.9331 5.83332 17.7211 5.83332 17.5001V16.5167C6.31595 16.3416 6.73294 16.0221 7.02762 15.6016C7.3223 15.1812 7.48039 14.6802 7.48039 14.1667C7.48039 13.6533 7.3223 13.1523 7.02762 12.7319C6.73294 12.3114 6.31595 11.9919 5.83332 11.8167V2.50008Z" fill="#AAAAAA"/>
<path d="M17.0392 9.39419C16.7408 8.97347 16.3196 8.65534 15.8333 8.48341V2.50008C15.8333 2.27907 15.7455 2.06711 15.5892 1.91083C15.433 1.75455 15.221 1.66675 15 1.66675C14.779 1.66675 14.567 1.75455 14.4107 1.91083C14.2545 2.06711 14.1667 2.27907 14.1667 2.50008V8.48341C13.684 8.65858 13.267 8.97811 12.9724 9.39855C12.6777 9.819 12.5196 10.32 12.5196 10.8334C12.5196 11.3468 12.6777 11.8478 12.9724 12.2683C13.267 12.6887 13.684 13.0082 14.1667 13.1834V17.5001C14.1667 17.7211 14.2545 17.9331 14.4107 18.0893C14.567 18.2456 14.779 18.3334 15 18.3334C15.221 18.3334 15.433 18.2456 15.5892 18.0893C15.7455 17.9331 15.8333 17.7211 15.8333 17.5001V13.1834C16.3196 13.0115 16.7408 12.6934 17.0392 12.2726C17.3376 11.8519 17.4985 11.3492 17.5 10.8334C17.4985 10.3176 17.3376 9.81491 17.0392 9.39419Z" fill="#AAAAAA"/>
<path d="M12.139 2.86552C11.9016 2.47313 11.5608 2.1536 11.1539 1.94191C10.7471 1.73022 10.2898 1.63453 9.83224 1.6653C9.37465 1.69608 8.93434 1.85214 8.5595 2.1164C8.18466 2.38066 7.88973 2.74294 7.707 3.1636C7.52427 3.58425 7.46078 4.04706 7.52347 4.50139C7.58615 4.95571 7.77261 5.38403 8.06243 5.73948C8.35225 6.09493 8.73426 6.36381 9.16666 6.51669V17.5C9.16666 17.721 9.25446 17.933 9.41074 18.0893C9.56702 18.2456 9.77898 18.3334 9.99999 18.3334C10.221 18.3334 10.433 18.2456 10.5892 18.0893C10.7455 17.933 10.8333 17.721 10.8333 17.5V6.51669C11.3196 6.34476 11.7408 6.02663 12.0392 5.60591C12.3376 5.18519 12.4985 4.68247 12.5 4.16669C12.5013 3.70806 12.3764 3.25792 12.139 2.86552Z" fill="#AAAAAA"/>
</svg>
