<svg width="24" height="24" viewBox="0 0 24 24" fill="none" xmlns="http://www.w3.org/2000/svg">
<path opacity="0.01" fill-rule="evenodd" clip-rule="evenodd" d="M24 24H0V0L24 0V24Z" fill="black"/>
<path d="M13.398 18.9035C13.263 18.8394 13.1441 18.746 13.05 18.63L8.21998 12.63C8.0729 12.451 7.99249 12.2266 7.99249 11.995C7.99249 11.7633 8.0729 11.5389 8.21998 11.36L13.22 5.35997C13.3897 5.15575 13.6336 5.02733 13.8981 5.00295C14.1625 4.97857 14.4258 5.06023 14.63 5.22997C14.8342 5.39971 14.9626 5.64362 14.987 5.90805C15.0114 6.17247 14.9297 6.43575 14.76 6.63997L10.29 12L14.61 17.36C14.7323 17.5068 14.8099 17.6855 14.8338 17.875C14.8577 18.0646 14.8268 18.257 14.7447 18.4295C14.6627 18.6021 14.5329 18.7475 14.3708 18.8486C14.2087 18.9497 14.021 19.0022 13.83 19C13.6806 19.0005 13.533 18.9675 13.398 18.9035Z" fill="black"/>
</svg>
