<svg width="17" height="20" viewBox="0 0 17 20" fill="none" xmlns="http://www.w3.org/2000/svg">
<path fill-rule="evenodd" clip-rule="evenodd" d="M2.2588 0C1.01193 0 0 1.09941 0 2.45406V15.6447C0 16.5439 0.44734 17.3281 1.11114 17.7561V19.1639C1.11114 19.6257 1.85881 20 2.781 20C3.70364 20 4.45131 19.6262 4.45131 19.1639V18.0997H6.49636V18.0965H10.7231V18.0997H12.2919V19.1639C12.2919 19.6257 13.0396 20 13.9618 20C14.884 20 15.6317 19.6262 15.6317 19.1639V17.6975C16.2468 17.2591 16.6549 16.5042 16.6549 15.6447V2.45406C16.6549 1.09941 15.6434 0 14.3961 0H2.2588ZM11.8378 1.048V1.72984H4.81703V1.048H11.8378ZM1.79297 12.4669H6.22399V14.1061H1.79297V12.4669ZM6.49636 16.5917H10.7231V17.8914H6.49636V16.5917ZM10.655 14.1061V12.4669H15.0865V14.1061H10.655ZM14.6238 8.77725H2.03107C1.66761 8.77725 1.37359 8.64062 1.37359 8.47241V2.64752C1.37359 2.47886 1.66761 2.34403 2.03107 2.34403H14.6238C14.9877 2.34403 15.2817 2.47886 15.2817 2.64752V8.47241C15.2817 8.64062 14.9877 8.77725 14.6238 8.77725Z" fill="#AAAAAA"/>
</svg>
