<svg width="20" height="20" viewBox="0 0 20 20" fill="none" xmlns="http://www.w3.org/2000/svg">
<path opacity="0.01" fill-rule="evenodd" clip-rule="evenodd" d="M0 20L0 0L20 0L20 20L0 20Z" fill="#AAAAAA"/>
<path d="M10.5893 4.75588C10.7456 4.5996 10.8334 4.38764 10.8334 4.16663V2.49996C10.8334 2.27895 10.7456 2.06698 10.5893 1.9107C10.433 1.75442 10.221 1.66663 10 1.66663C9.77901 1.66663 9.56705 1.75442 9.41076 1.9107C9.25448 2.06698 9.16669 2.27895 9.16669 2.49996V4.16663C9.16669 4.38764 9.25448 4.5996 9.41076 4.75588C9.56705 4.91216 9.77901 4.99996 10 4.99996C10.221 4.99996 10.433 4.91216 10.5893 4.75588Z" fill="#AAAAAA"/>
<path d="M15.8333 9.16663C15.6123 9.16663 15.4004 9.25442 15.2441 9.4107C15.0878 9.56698 15 9.77895 15 9.99996C15 10.221 15.0878 10.4329 15.2441 10.5892C15.4004 10.7455 15.6123 10.8333 15.8333 10.8333H17.5C17.721 10.8333 17.933 10.7455 18.0893 10.5892C18.2455 10.4329 18.3333 10.221 18.3333 9.99996C18.3333 9.77895 18.2455 9.56698 18.0893 9.4107C17.933 9.25442 17.721 9.16663 17.5 9.16663H15.8333Z" fill="#AAAAAA"/>
<path d="M4.75594 9.4107C4.59966 9.25442 4.3877 9.16663 4.16669 9.16663H2.50002C2.27901 9.16663 2.06704 9.25442 1.91076 9.4107C1.75448 9.56698 1.66669 9.77895 1.66669 9.99996C1.66669 10.221 1.75448 10.4329 1.91076 10.5892C2.06704 10.7455 2.27901 10.8333 2.50002 10.8333H4.16669C4.3877 10.8333 4.59966 10.7455 4.75594 10.5892C4.91222 10.4329 5.00002 10.221 5.00002 9.99996C5.00002 9.77895 4.91222 9.56698 4.75594 9.4107Z" fill="#AAAAAA"/>
<path d="M4.58063 3.93649C4.35714 3.94274 4.1453 4.03751 3.9917 4.19996C3.83809 4.3624 3.75531 4.57921 3.76156 4.80269C3.76781 5.02617 3.86258 5.23802 4.02503 5.39162L5.22503 6.54996C5.30556 6.62771 5.40093 6.68845 5.50545 6.72854C5.60997 6.76863 5.72149 6.78725 5.83336 6.78329C5.94562 6.78286 6.05663 6.75976 6.15973 6.71537C6.26284 6.67097 6.35591 6.60621 6.43336 6.52496C6.58857 6.36882 6.67569 6.15761 6.67569 5.93746C6.67569 5.7173 6.58857 5.50609 6.43336 5.34996L5.18336 4.16662C5.02092 4.01302 4.80411 3.93024 4.58063 3.93649Z" fill="#AAAAAA"/>
<path d="M14.7417 6.55003L15.9417 5.3917C16.088 5.23874 16.1707 5.0358 16.1729 4.82409C16.1751 4.61238 16.0966 4.40778 15.9534 4.25184C15.8102 4.0959 15.613 4.00032 15.4019 3.98451C15.1907 3.96869 14.9815 4.03383 14.8167 4.1667L13.6167 5.35003C13.4614 5.50617 13.3743 5.71738 13.3743 5.93753C13.3743 6.15769 13.4614 6.3689 13.6167 6.52503C13.7609 6.6773 13.9573 6.76955 14.1667 6.78337C14.3812 6.78251 14.5872 6.69893 14.7417 6.55003Z" fill="#AAAAAA"/>
<path d="M9.41076 15.2441C9.25448 15.4004 9.16669 15.6123 9.16669 15.8333V17.5C9.16669 17.721 9.25448 17.933 9.41076 18.0893C9.56705 18.2455 9.77901 18.3333 10 18.3333C10.221 18.3333 10.433 18.2455 10.5893 18.0893C10.7456 17.933 10.8334 17.721 10.8334 17.5V15.8333C10.8334 15.6123 10.7456 15.4004 10.5893 15.2441C10.433 15.0878 10.221 15 10 15C9.77901 15 9.56705 15.0878 9.41076 15.2441Z" fill="#AAAAAA"/>
<path d="M14.1811 13.2162C13.96 13.2201 13.7495 13.3117 13.5959 13.4708C13.4423 13.63 13.3582 13.8436 13.3621 14.0647C13.366 14.2859 13.4576 14.4964 13.6167 14.65L14.8167 15.8333C14.9712 15.9822 15.1771 16.0658 15.3917 16.0667C15.5034 16.0673 15.614 16.0455 15.7171 16.0026C15.8201 15.9596 15.9135 15.8964 15.9917 15.8167C16.0698 15.7392 16.1318 15.647 16.1741 15.5455C16.2164 15.4439 16.2382 15.335 16.2382 15.225C16.2382 15.115 16.2164 15.0061 16.1741 14.9045C16.1318 14.803 16.0698 14.7108 15.9917 14.6333L14.775 13.45C14.6159 13.2964 14.4023 13.2123 14.1811 13.2162Z" fill="#AAAAAA"/>
<path d="M4.025 14.6082C3.94689 14.6857 3.8849 14.7779 3.84259 14.8794C3.80029 14.981 3.7785 15.0899 3.7785 15.1999C3.7785 15.3099 3.80029 15.4188 3.84259 15.5204C3.8849 15.6219 3.94689 15.7141 4.025 15.7916C4.10316 15.8713 4.19655 15.9345 4.29962 15.9775C4.40269 16.0204 4.51334 16.0422 4.625 16.0416C4.83043 16.0433 5.02927 15.9691 5.18334 15.8332L6.38334 14.6749C6.54247 14.5213 6.63406 14.3108 6.63797 14.0896C6.64187 13.8685 6.55777 13.6549 6.40417 13.4957C6.25056 13.3366 6.04004 13.245 5.8189 13.2411C5.59776 13.2372 5.38413 13.3213 5.225 13.4749V13.4499L4.025 14.6082Z" fill="#AAAAAA"/>
<path d="M8.14812 7.22839C7.59996 7.59467 7.17272 8.11526 6.92042 8.72435C6.66813 9.33343 6.60212 10.0037 6.73074 10.6503C6.85935 11.2969 7.17682 11.8908 7.643 12.357C8.10917 12.8232 8.70312 13.1406 9.34972 13.2692C9.99632 13.3979 10.6665 13.3319 11.2756 13.0796C11.8847 12.8273 12.4053 12.4 12.7716 11.8519C13.1379 11.3037 13.3334 10.6592 13.3334 9.99996C13.3334 9.1159 12.9822 8.26806 12.357 7.64294C11.7319 7.01782 10.8841 6.66663 10 6.66663C9.34075 6.66663 8.69629 6.86212 8.14812 7.22839Z" fill="#AAAAAA"/>
</svg>
