<svg width="20" height="20" viewBox="0 0 20 20" fill="none" xmlns="http://www.w3.org/2000/svg">
<path opacity="0.01" fill-rule="evenodd" clip-rule="evenodd" d="M20 0V20H0V0H20Z" fill="#AAAAAA"/>
<path fill-rule="evenodd" clip-rule="evenodd" d="M15.6 11.1668V7.45012C15.62 6.06997 15.1399 4.72921 14.2485 3.6754C13.357 2.62158 12.1144 1.92589 10.75 1.71678C9.9582 1.6125 9.15324 1.67829 8.38886 1.90976C7.62448 2.14123 6.91825 2.53305 6.31729 3.05908C5.71634 3.58512 5.23448 4.23326 4.90386 4.96028C4.57324 5.68729 4.40148 6.47646 4.40002 7.27512V11.1668L2.90002 12.6751C2.71161 12.8667 2.58384 13.1095 2.53269 13.3733C2.48153 13.6371 2.50927 13.9101 2.61242 14.1581C2.71557 14.4062 2.88956 14.6184 3.11265 14.7682C3.33573 14.9179 3.59801 14.9986 3.86669 15.0001H6.66669V15.2835C6.70561 16.1295 7.07831 16.9255 7.70312 17.4972C8.32794 18.0689 9.1539 18.3696 10 18.3335C10.8461 18.3696 11.6721 18.0689 12.2969 17.4972C12.9217 16.9255 13.2944 16.1295 13.3334 15.2835V15.0001H16.1334C16.402 14.9986 16.6643 14.9179 16.8874 14.7682C17.1105 14.6184 17.2845 14.4062 17.3876 14.1581C17.4908 13.9101 17.5185 13.6371 17.4674 13.3733C17.4162 13.1095 17.2884 12.8667 17.1 12.6751L15.6 11.1668ZM11.1109 16.3095C10.8004 16.5672 10.4025 16.6952 10 16.6668C9.59753 16.6952 9.1996 16.5672 8.88913 16.3095C8.57865 16.0518 8.37957 15.6843 8.33335 15.2835V15.0001H11.6667V15.2835C11.6205 15.6843 11.4214 16.0518 11.1109 16.3095Z" fill="#AAAAAA"/>
</svg>
