<svg width="8" height="15" viewBox="0 0 8 15" fill="none" xmlns="http://www.w3.org/2000/svg">
<path d="M1.60207 0.0964608C1.73705 0.16049 1.85596 0.253949 1.95008 0.369969L6.78008 6.36997C6.92716 6.5489 7.00757 6.77334 7.00757 7.00497C7.00757 7.23659 6.92716 7.46104 6.78008 7.63997L1.78008 13.64C1.61034 13.8442 1.36643 13.9726 1.102 13.997C0.837578 14.0214 0.574297 13.9397 0.37008 13.77C0.165864 13.6002 0.0374399 13.3563 0.0130602 13.0919C-0.0113195 12.8275 0.0703417 12.5642 0.240081 12.36L4.71008 6.99997L0.390082 1.63997C0.267799 1.49318 0.190122 1.31444 0.166242 1.12489C0.142363 0.935345 0.173279 0.74292 0.255336 0.570393C0.337392 0.397866 0.467151 0.252454 0.629262 0.151364C0.791372 0.0502734 0.979048 -0.0022636 1.17008 -3.19816e-05C1.31948 -0.000540277 1.46709 0.0324321 1.60207 0.0964608Z" fill="black"/>
</svg>
