<svg width="20" height="20" viewBox="0 0 20 20" fill="none" xmlns="http://www.w3.org/2000/svg">
<rect width="20" height="20" rx="5" fill="#EEEEEE"/>
<path d="M10.25 4V15.9167" stroke="#666666" stroke-width="1.5" stroke-linecap="round" stroke-linejoin="round"/>
<path d="M12.9583 6.16675H8.89583C8.39303 6.16675 7.91081 6.36649 7.55528 6.72203C7.19974 7.07756 7 7.55978 7 8.06258C7 8.56539 7.19974 9.0476 7.55528 9.40314C7.91081 9.75868 8.39303 9.95842 8.89583 9.95842H11.6042C12.107 9.95842 12.5892 10.1582 12.9447 10.5137C13.3003 10.8692 13.5 11.3514 13.5 11.8542C13.5 12.3571 13.3003 12.8393 12.9447 13.1948C12.5892 13.5503 12.107 13.7501 11.6042 13.7501H7" stroke="#666666" stroke-width="1.5" stroke-linecap="round" stroke-linejoin="round"/>
</svg>
