<svg width="20" height="20" viewBox="0 0 20 20" fill="none" xmlns="http://www.w3.org/2000/svg">
<rect width="20" height="20" rx="5" fill="#EEEEEE"/>
<path opacity="0.01" fill-rule="evenodd" clip-rule="evenodd" d="M4 17L4 4L17 4V17H4Z" fill="#666666"/>
<path fill-rule="evenodd" clip-rule="evenodd" d="M15.505 8.42681C15.2328 7.76962 14.8338 7.1725 14.3308 6.66951C13.8278 6.16653 13.2307 5.76754 12.5735 5.49533C11.9163 5.22311 11.212 5.08301 10.5006 5.08301C9.06406 5.08301 7.68631 5.65369 6.67049 6.66951C5.65467 7.68533 5.08398 9.06308 5.08398 10.4997C5.08398 11.9363 5.65467 13.314 6.67049 14.3298C7.68631 15.3457 9.06406 15.9163 10.5006 15.9163C11.9372 15.9163 13.315 15.3457 14.3308 14.3298C15.3466 13.314 15.9173 11.9363 15.9173 10.4997C15.9173 9.78835 15.7772 9.08399 15.505 8.42681ZM13.209 9.95801C13.1196 8.68408 12.6832 7.45895 11.9469 6.41551C12.7033 6.68416 13.3703 7.15763 13.8733 7.78313C14.3764 8.40863 14.6959 9.16158 14.7961 9.95801H13.209ZM12.1256 11.0413C11.987 12.3796 11.4166 13.6363 10.5006 14.6218C9.58527 13.6405 9.02796 12.3789 8.91898 11.0413H12.1256ZM10.5006 6.38301C11.424 7.36132 11.9957 8.61903 12.1256 9.95801H8.91898C9.04513 8.6265 9.60018 7.37194 10.5006 6.38301ZM7.83023 9.95801H6.20523C6.30756 9.15174 6.63456 8.39049 7.14891 7.76121C7.66325 7.13193 8.3442 6.65998 9.11398 6.39926C8.37382 7.44848 7.93033 8.6779 7.83023 9.95801ZM7.83023 11.0413C7.91944 12.3204 8.35992 13.5499 9.10315 14.5947C8.33614 14.3327 7.65798 13.8608 7.14571 13.2327C6.63345 12.6046 6.30762 11.8454 6.20523 11.0413H7.83023ZM13.209 11.0413H14.8069C14.7045 11.8431 14.3798 12.6003 13.8696 13.2273C13.3594 13.8542 12.6841 14.326 11.9198 14.5893C12.661 13.5442 13.1064 12.3185 13.209 11.0413Z" fill="#666666"/>
</svg>
