<svg width="20" height="20" viewBox="0 0 20 20" fill="none" xmlns="http://www.w3.org/2000/svg">
<rect width="20" height="20" rx="5" fill="#EEEEEE"/>
<path opacity="0.01" fill-rule="evenodd" clip-rule="evenodd" d="M17 4V17H4V4H17Z" fill="#666666"/>
<path fill-rule="evenodd" clip-rule="evenodd" d="M14.1399 11.2585V8.84264C14.1529 7.94554 13.8408 7.07405 13.2614 6.38907C12.6819 5.70409 11.8742 5.25189 10.9874 5.11597C10.4727 5.04819 9.94949 5.09095 9.45264 5.24141C8.95579 5.39186 8.49674 5.64654 8.10612 5.98847C7.7155 6.33039 7.40229 6.75168 7.18739 7.22424C6.97249 7.6968 6.86084 8.20976 6.8599 8.72889V11.2585L5.8849 12.2389C5.76243 12.3634 5.67938 12.5212 5.64613 12.6927C5.61288 12.8641 5.63091 13.0416 5.69796 13.2029C5.765 13.3641 5.8781 13.502 6.0231 13.5994C6.16811 13.6967 6.33859 13.7492 6.51323 13.7501H8.33323V13.9343C8.35853 14.4842 8.60079 15.0017 9.00691 15.3733C9.41304 15.7449 9.94992 15.9403 10.4999 15.9168C11.0499 15.9403 11.5868 15.7449 11.9929 15.3733C12.399 15.0017 12.6413 14.4842 12.6666 13.9343V13.7501H14.4866C14.6612 13.7492 14.8317 13.6967 14.9767 13.5994C15.1217 13.502 15.2348 13.3641 15.3018 13.2029C15.3689 13.0416 15.3869 12.8641 15.3537 12.6927C15.3204 12.5212 15.2374 12.3634 15.1149 12.2389L14.1399 11.2585ZM11.222 14.6013C11.0202 14.7688 10.7615 14.8519 10.4999 14.8335C10.2383 14.8519 9.97963 14.7688 9.77782 14.6013C9.57601 14.4338 9.4466 14.1948 9.41656 13.9343V13.7501H11.5832V13.9343C11.5532 14.1948 11.4238 14.4338 11.222 14.6013Z" fill="#666666"/>
</svg>
