<svg width="20" height="20" viewBox="0 0 20 20" fill="none" xmlns="http://www.w3.org/2000/svg">
<rect width="20" height="20" rx="5" fill="#EEEEEE"/>
<path opacity="0.01" fill-rule="evenodd" clip-rule="evenodd" d="M17 4V17H4V4H17Z" fill="#666666"/>
<path fill-rule="evenodd" clip-rule="evenodd" d="M6.70898 6.70886C6.27801 6.70886 5.86468 6.88007 5.55994 7.18481C5.25519 7.48956 5.08398 7.90289 5.08398 8.33386V12.6672C5.08398 13.0982 5.25519 13.5115 5.55994 13.8162C5.86468 14.121 6.27801 14.2922 6.70898 14.2922H14.2923C14.7233 14.2922 15.1366 14.121 15.4414 13.8162C15.7461 13.5115 15.9173 13.0982 15.9173 12.6672V8.33386C15.9173 7.90289 15.7461 7.48956 15.4414 7.18481C15.1366 6.88007 14.7233 6.70886 14.2923 6.70886H6.70898ZM7.79232 12.1255C7.64866 12.1255 7.51088 12.0685 7.4093 11.9669C7.30772 11.8653 7.25065 11.7275 7.25065 11.5839C7.25065 11.4402 7.30772 11.3024 7.4093 11.2008C7.51088 11.0993 7.64866 11.0422 7.79232 11.0422H9.95898C10.1026 11.0422 10.2404 11.0993 10.342 11.2008C10.4436 11.3024 10.5007 11.4402 10.5007 11.5839C10.5007 11.7275 10.4436 11.8653 10.342 11.9669C10.2404 12.0685 10.1026 12.1255 9.95898 12.1255H7.79232ZM12.1257 12.1255C11.982 12.1255 11.8442 12.0685 11.7426 11.9669C11.6411 11.8653 11.584 11.7275 11.584 11.5839C11.584 11.4402 11.6411 11.3024 11.7426 11.2008C11.8442 11.0993 11.982 11.0422 12.1257 11.0422H13.209C13.3526 11.0422 13.4904 11.0993 13.592 11.2008C13.6936 11.3024 13.7507 11.4402 13.7507 11.5839C13.7507 11.7275 13.6936 11.8653 13.592 11.9669C13.4904 12.0685 13.3526 12.1255 13.209 12.1255H12.1257ZM6.16732 8.87553V8.33386C6.16732 8.1902 6.22439 8.05243 6.32597 7.95085C6.42755 7.84926 6.56533 7.7922 6.70898 7.7922H14.2923C14.436 7.7922 14.5738 7.84926 14.6753 7.95085C14.7769 8.05243 14.834 8.1902 14.834 8.33386V8.87553H6.16732Z" fill="#666666"/>
</svg>
