<svg width="20" height="20" viewBox="0 0 20 20" fill="none" xmlns="http://www.w3.org/2000/svg">
<rect width="20" height="20" rx="5" fill="#EEEEEE"/>
<path opacity="0.01" fill-rule="evenodd" clip-rule="evenodd" d="M17 4V17H4V4H17Z" fill="#666666"/>
<path d="M9.95838 15.7004L9.79588 15.6083C8.53015 14.8922 7.47714 13.853 6.74438 12.5969C6.01162 11.3407 5.62536 9.91259 5.62504 8.45833V8.3825C5.62333 8.19069 5.67257 8.00186 5.76774 7.83531C5.8629 7.66877 6.00059 7.53048 6.16671 7.43458L9.95838 5.30041C10.1231 5.20533 10.3099 5.15527 10.5 5.15527C10.6902 5.15527 10.877 5.20533 11.0417 5.30041L14.8334 7.43458C14.9995 7.53048 15.1372 7.66877 15.2324 7.83531C15.3275 8.00186 15.3768 8.19069 15.375 8.3825V8.45833C15.3736 9.91366 14.9857 11.3425 14.251 12.5988C13.5163 13.855 12.4611 14.8936 11.1934 15.6083L11.0309 15.7004C10.8685 15.7903 10.6857 15.8369 10.5 15.8358C10.3108 15.8388 10.124 15.7921 9.95838 15.7004Z" fill="#666666"/>
</svg>
