<svg width="20" height="20" viewBox="0 0 20 20" fill="none" xmlns="http://www.w3.org/2000/svg">
<rect width="20" height="20" rx="5" fill="#EEEEEE"/>
<path opacity="0.01" fill-rule="evenodd" clip-rule="evenodd" d="M4 17L4 4L17 4V17H4Z" fill="#666666"/>
<path fill-rule="evenodd" clip-rule="evenodd" d="M7.49034 5.99588C6.59957 6.59107 5.9053 7.43704 5.49533 8.42681C5.08535 9.41657 4.97809 10.5057 5.18709 11.5564C5.39609 12.6071 5.91198 13.5723 6.66951 14.3298C7.42705 15.0874 8.39221 15.6033 9.44294 15.8123C10.4937 16.0213 11.5828 15.914 12.5725 15.504C13.5623 15.094 14.4083 14.3998 15.0035 13.509C15.5987 12.6182 15.9163 11.571 15.9163 10.4997C15.9163 9.78835 15.7762 9.08399 15.504 8.42681C15.2318 7.76963 14.8328 7.1725 14.3298 6.66951C13.8269 6.16653 13.2297 5.76754 12.5725 5.49533C11.9154 5.22311 11.211 5.08301 10.4997 5.08301C9.42836 5.08301 8.3811 5.40069 7.49034 5.99588ZM10.1987 13.6584C10.1097 13.5989 10.0402 13.5143 9.99924 13.4153C9.95824 13.3163 9.94752 13.2074 9.96842 13.1023C9.98932 12.9973 10.0409 12.9007 10.1167 12.825C10.1924 12.7492 10.2889 12.6977 10.394 12.6768C10.4991 12.6558 10.608 12.6666 10.707 12.7076C10.8059 12.7486 10.8905 12.818 10.9501 12.9071C11.0096 12.9962 11.0413 13.1009 11.0413 13.208C11.0413 13.3517 10.9843 13.4894 10.8827 13.591C10.7811 13.6926 10.6433 13.7497 10.4997 13.7497C10.3925 13.7497 10.2878 13.7179 10.1987 13.6584ZM11.0413 11.583C11.0413 11.7267 10.9843 11.8644 10.8827 11.966C10.7811 12.0676 10.6433 12.1247 10.4997 12.1247C10.356 12.1247 10.2182 12.0676 10.1167 11.966C10.0151 11.8644 9.95801 11.7267 9.95801 11.583V10.4997C9.95801 10.356 10.0151 10.2182 10.1167 10.1167C10.2182 10.0151 10.356 9.95801 10.4997 9.95801C10.6604 9.95801 10.8175 9.91036 10.9511 9.82108C11.0847 9.7318 11.1888 9.6049 11.2503 9.45644C11.3118 9.30797 11.3279 9.14461 11.2966 8.987C11.2652 8.82939 11.1878 8.68461 11.0742 8.57098C10.9606 8.45735 10.8158 8.37997 10.6582 8.34862C10.5006 8.31727 10.3372 8.33336 10.1887 8.39486C10.0403 8.45635 9.91339 8.56049 9.82411 8.69411C9.73483 8.82772 9.68718 8.98481 9.68718 9.14551C9.68718 9.28917 9.63011 9.42694 9.52853 9.52852C9.42694 9.63011 9.28917 9.68718 9.14551 9.68718C9.00185 9.68718 8.86408 9.63011 8.76249 9.52852C8.66091 9.42694 8.60384 9.28917 8.60384 9.14551C8.60243 8.79359 8.69899 8.44822 8.88273 8.14807C9.06647 7.84792 9.33012 7.60483 9.64418 7.44603C9.95823 7.28723 10.3103 7.21898 10.6609 7.24891C11.0116 7.27885 11.347 7.4058 11.6296 7.61554C11.9122 7.82529 12.1308 8.10955 12.261 8.4365C12.3912 8.76346 12.4278 9.1202 12.3667 9.46678C12.3057 9.81337 12.1494 10.1361 11.9153 10.3989C11.6812 10.6617 11.3786 10.8541 11.0413 10.9547V11.583Z" fill="#666666"/>
</svg>
